<?xml version="1.0" encoding="UTF-8"?>
<svg id="_图层_1" data-name="图层 1" xmlns="http://www.w3.org/2000/svg" viewBox="0 0 1024 1024">
  <defs>
    <style>
      .cls-1 {
        fill: #015092;
      }

      .cls-2 {
        fill: #0299e0;
      }

      .cls-3 {
        fill: #2cb9f0;
      }

      .cls-4 {
        fill: #023970;
      }

      .cls-5 {
        fill: #1e91d4;
      }

      .cls-6 {
        fill: #8ddafa;
      }

      .cls-7 {
        fill: #0071b4;
      }

      .cls-8 {
        fill: #63b4e1;
      }

      .cls-9 {
        fill: #139adc;
      }

      .cls-10 {
        fill: #085da7;
      }

      .cls-11 {
        fill: #8dd9fa;
      }

      .cls-12 {
        fill: #002662;
      }

      .cls-13 {
        fill: #02245b;
      }

      .cls-14 {
        fill: #0274bd;
      }

      .cls-15 {
        fill: #97d0ed;
      }

      .cls-16 {
        fill: #87cdf4;
      }

      .cls-17 {
        fill: #022457;
      }

      .cls-18 {
        fill: #a6e1fa;
      }

      .cls-19 {
        fill: #001d57;
      }

      .cls-20 {
        fill: #82d1f8;
      }

      .cls-21 {
        fill: #0183c8;
      }

      .cls-22 {
        fill: #1296d5;
      }

      .cls-23 {
        fill: #e0f6f9;
      }

      .cls-24 {
        fill: #012353;
      }

      .cls-25 {
        fill: #018bd4;
      }

      .cls-26 {
        fill: #94d9f9;
      }

      .cls-27 {
        fill: #2ea3e2;
      }

      .cls-28 {
        fill: #025ba0;
      }

      .cls-29 {
        fill: #72d0f7;
      }

      .cls-30 {
        fill: #a2def9;
      }

      .cls-31 {
        fill: #0374b7;
      }

      .cls-32 {
        fill: #63cef8;
      }

      .cls-33 {
        fill: #5acaef;
      }

      .cls-34 {
        fill: #97d6f9;
      }

      .cls-35 {
        fill: #0180c6;
      }

      .cls-36 {
        fill: #01599f;
      }

      .cls-37 {
        fill: #48c5f8;
      }

      .cls-38 {
        fill: #7ccff7;
      }

      .cls-39 {
        fill: #01215b;
      }

      .cls-40 {
        fill: #f2f8f7;
      }

      .cls-41 {
        fill: #005698;
      }

      .cls-42 {
        fill: #089ce3;
      }

      .cls-43 {
        fill: #a3e2f6;
      }

      .cls-44 {
        fill: #66c6ef;
      }

      .cls-45 {
        fill: #003971;
      }

      .cls-46 {
        fill: #6dcaf3;
      }

      .cls-47 {
        fill: #b8e6f6;
      }

      .cls-48 {
        fill: #013566;
      }

      .cls-49 {
        fill: #87d8f8;
      }

      .cls-50 {
        fill: #c5effa;
      }

      .cls-51 {
        fill: #87d1f7;
      }

      .cls-52 {
        fill: #037ac5;
      }

      .cls-53 {
        fill: #cbf0fb;
      }

      .cls-54 {
        fill: #7fc9f2;
      }

      .cls-55 {
        fill: #003d7a;
      }

      .cls-56 {
        fill: #0199e6;
      }

      .cls-57 {
        fill: #fcfcfb;
      }

      .cls-58 {
        fill: #eaf6f6;
      }

      .cls-59 {
        fill: #01235b;
      }

      .cls-60 {
        fill: #026bb4;
      }

      .cls-61 {
        fill: #7ec8f1;
      }

      .cls-62 {
        fill: #e6f7fa;
      }

      .cls-63 {
        fill: #78d0f8;
      }

      .cls-64 {
        fill: #69c9f7;
      }

      .cls-65 {
        fill: #88d4f5;
      }

      .cls-66 {
        fill: #74c3ee;
      }

      .cls-67 {
        fill: #67caf9;
      }

      .cls-68 {
        fill: #96ddf9;
      }

      .cls-69 {
        fill: #edf4f5;
      }

      .cls-70 {
        fill: #75c8f4;
      }

      .cls-71 {
        fill: #013774;
      }

      .cls-72 {
        fill: #0696dc;
      }

      .cls-73 {
        fill: #6bd5f8;
      }

      .cls-74 {
        fill: #011850;
      }

      .cls-75 {
        fill: #5ac9f9;
      }

      .cls-76 {
        fill: #047dc1;
      }

      .cls-77 {
        fill: #a1e2f8;
      }

      .cls-78 {
        fill: #87d4f9;
      }

      .cls-79 {
        fill: #f8fbfb;
      }

      .cls-80 {
        fill: #c6ebf8;
      }

      .cls-81 {
        fill: #88dbfa;
      }

      .cls-82 {
        fill: #016bb3;
      }

      .cls-83 {
        fill: #f6fbfb;
      }

      .cls-84 {
        fill: #01417f;
      }

      .cls-85 {
        fill: #012255;
      }

      .cls-86 {
        fill: #022356;
      }

      .cls-87 {
        fill: #6ebae5;
      }

      .cls-88 {
        fill: #1894d3;
      }

      .cls-89 {
        fill: #f1faf9;
      }

      .cls-90 {
        fill: #bfeafb;
      }

      .cls-91 {
        fill: #011a52;
      }

      .cls-92 {
        fill: #44caf7;
      }

      .cls-93 {
        fill: #55acde;
      }

      .cls-94 {
        fill: #e1f5fa;
      }

      .cls-95 {
        fill: #daf3fb;
      }

      .cls-96 {
        fill: #ddeef2;
      }

      .cls-97 {
        fill: #025195;
      }

      .cls-98 {
        fill: #fefefe;
      }

      .cls-99 {
        fill: #005ea2;
      }

      .cls-100 {
        fill: #219edc;
      }

      .cls-101 {
        fill: #6fcbf8;
      }

      .cls-102 {
        fill: #b4e5fb;
      }

      .cls-103 {
        fill: #87d1f5;
      }

      .cls-104 {
        fill: #01225b;
      }

      .cls-105 {
        fill: #01225c;
      }

      .cls-106 {
        fill: #9edcf9;
      }

      .cls-107 {
        fill: #001b56;
      }

      .cls-108 {
        fill: #3d9ad3;
      }

      .cls-109 {
        fill: #88dafa;
      }

      .cls-110 {
        fill: #023573;
      }

      .cls-111 {
        fill: #005192;
      }

      .cls-112 {
        fill: #8edff8;
      }

      .cls-113 {
        fill: #4fc4f6;
      }

      .cls-114 {
        fill: #0f63a0;
      }

      .cls-115 {
        fill: #39c2f8;
      }

      .cls-116 {
        fill: #014b8b;
      }

      .cls-117 {
        fill: #069fe2;
      }

      .cls-118 {
        fill: #36b6f2;
      }

      .cls-119 {
        fill: #9ee1fb;
      }

      .cls-120 {
        fill: #caedf8;
      }

      .cls-121 {
        fill: #57b6e8;
      }

      .cls-122 {
        fill: #93dbfa;
      }

      .cls-123 {
        fill: #8dd8f9;
      }

      .cls-124 {
        fill: #87d3f9;
      }

      .cls-125 {
        fill: #026dbb;
      }

      .cls-126 {
        fill: #0287cb;
      }

      .cls-127 {
        fill: #86d2f7;
      }

      .cls-128 {
        fill: #51bbed;
      }

      .cls-129 {
        fill: #30abe6;
      }

      .cls-130 {
        fill: #e5f9fc;
      }

      .cls-131 {
        fill: #bee8fb;
      }

      .cls-132 {
        fill: #cdf0fb;
      }

      .cls-133 {
        fill: #014789;
      }

      .cls-134 {
        fill: #9ae3f9;
      }

      .cls-135 {
        fill: #daf3fa;
      }

      .cls-136 {
        fill: #75ccee;
      }

      .cls-137 {
        fill: #026aad;
      }

      .cls-138 {
        fill: #004e8f;
      }

      .cls-139 {
        fill: #01235a;
      }

      .cls-140 {
        fill: #3abcf1;
      }

      .cls-141 {
        fill: #ccedfa;
      }

      .cls-142 {
        fill: #44a0d7;
      }

      .cls-143 {
        fill: #8bdbf8;
      }

      .cls-144 {
        fill: #aee6f9;
      }

      .cls-145 {
        fill: #0275c1;
      }

      .cls-146 {
        fill: #349fd8;
      }

      .cls-147 {
        fill: #022a62;
      }

      .cls-148 {
        fill: #a7e4fa;
      }

      .cls-149 {
        fill: #26b2ed;
      }

      .cls-150 {
        fill: #ade2f8;
      }

      .cls-151 {
        fill: #3ebaea;
      }

      .cls-152 {
        fill: #2695cd;
      }

      .cls-153 {
        fill: #7ed7f8;
      }

      .cls-154 {
        fill: #58cafa;
      }

      .cls-155 {
        fill: #0165b0;
      }

      .cls-156 {
        fill: #0158a0;
      }

      .cls-157 {
        fill: #9fb2c6;
      }

      .cls-158 {
        fill: #03498a;
      }

      .cls-159 {
        fill: #fcfdfd;
      }
    </style>
  </defs>
  <path class="cls-98" d="M619.5264,1011.7646c-187.8911,38.3228-352.0223-13.4857-485.2638-153.9168C63.6577,783.4468,22.1735,692.8925,5.8534,591.0419c-4.1211-25.7019-5.2516-51.7533-5.8534-75.0635,1.6594-120.7085,36.1596-227.3242,108.9893-320.2887C188.1646,94.6301,291.4464,33.4388,416.5734,9.7607c121.7171-23.0158,237.7998-5.5929,346.0778,55.0833,138.6389,77.6758,223.4489,196.7837,252.4604,353.5337,51.0392,275.6739-122.6106,537.6966-395.5852,593.387Z"/>
  <path class="cls-12" d="M619.5264,1011.7646c-187.8911,38.3228-352.0223-13.4857-485.2638-153.9168C63.6577,783.4468,22.1735,692.8925,5.8534,591.0419c-4.1211-25.7019-5.2516-51.7533-5.8534-75.0635,1.6594-120.7085,36.1596-227.3242,108.9893-320.2887C188.1646,94.6301,291.4464,33.4388,416.5734,9.7607c121.7171-23.0158,237.7998-5.5929,346.0778,55.0833,138.6389,77.6758,223.4489,196.7837,252.4604,353.5337,51.0392,275.6739-122.6106,537.6966-395.5852,593.387Z"/>
  <path class="cls-57" d="M260.5906,690.7773c-27.8825,3.9457-55.8125,7.4977-84.0141,7.8045-31.5792.3435-62.9859-1.8614-94.1231-7.4016-4.1346-.7356-6.7476-2.6368-8.5015-6.9881-26.6504-66.1181-36.7808-135.0401-31.7259-205.8509,5.8487-81.9296,32.3428-157.1098,77.2441-225.8115,31.4148-48.0665,69.2086-89.7899,115.7651-123.2417,8.6422-6.2096,17.6453-11.8685,27.2265-16.5308,2.1098-1.2505,3.6277-1.2887,3.6192,1.7989-15.1436,10.9266-29.4929,22.5759-39.7317,38.7554-2.267,3.5823-2.6823,7.8285-5.3919,11.0157-.2773,10.9012-4.3224,21.3764-2.7065,32.6286.7057,4.9142-4.6778,8.2881-8.1682,11.5937-13.8271,13.0949-21.8271,29.169-24.4384,48.0048-1.7444,12.5823,1.5601,24.2324,7.1753,35.3189,1.5538,3.0677,4.2353,5.1412,7.2284,6.7797,4.6488,2.5448,9.2519,2.8741,13.6748-.4184,4.3216-3.2172,4.4524-7.6461,3.2876-12.4042-1.9536-7.981-4.7386-15.7821-3.4401-24.3056,2.7482-18.0395,11.6564-32.0899,27.0117-41.5018,7.0966-4.3498,9.4777-9.5628,7.569-17.5292-1.4332-5.9817-1.2019-12.2066-.5955-18.2795.6669-6.679,1.7387-13.4154,7.7614-17.8274,9.1786-16.7622,24.2132-25.1964,41.9984-28.974,6.4678-1.3738,9.2967-4.5654,10.4786-10.6377,8.6861-44.6264,56.8616-70.1211,94.5327-66.4938,7.2352.6967,14.4244,1.8797,22.2217,2.9164-2.2861,5.5724-7.9626,8.5816-9.4651,15.6124,8.006-4.4288,14.9402-8.4311,22.0189-12.1534,46.5007-24.4517,95.8305-29.319,146.9223-21.1811,119.8477,19.0895,218.3638,76.289,295.9539,170.0451,41.6185,50.2899,68.6882,108.4508,87.522,170.7806,1.7034,5.6377-.2437,7.2482-5.6372,6.4166-18.5075-2.8537-31.5173-13.1567-39.6037-29.9036-2.7736-5.7438-5.0601-11.7603-7.1545-17.7986-8.8599-25.5455-22.2931-35.5652-48.7943-34.8301-23.9196.6636-40.4726-10.434-51.1506-31.1714-4.0246-7.816-6.6107-16.3726-10.1418-24.4632-11.4943-26.3366-34.2903-38.0176-62.1937-32.226-6.8086,1.4132-13.5973,2.8724-20.708,2.5571-21.2106-.9403-36.9867-10.4422-47.1177-29.3577-2.8764-5.3704-5.6408-10.8229-8.8589-15.9823-13.0161-20.8676-35.2576-28.7458-58.3802-21.0538-10.4307,3.4699-19.7489,9.2088-29.442,14.18-27.111,13.9043-52.3849,9.8911-71.6892-11.7625-14.8998-16.713-39.626-15.1948-55.6111,1.8458-6.251,6.6637-11.9073,13.9119-18.3406,20.3815-14.4511,14.5329-31.3604,18.7267-50.8312,11.491-17.4262-6.4758-25.9107-1.4724-30.2412,17.0986-1.6501,7.0762-2.7175,14.4207-6.9098,20.6609-.4147,5.8591-4.9982,8.8607-8.5522,12.5114-3.1913,3.2781-7.149,5.6759-10.4255,8.891-11.2575,11.0467-12.8424,23.9956-4.4969,37.3518,10.6807,17.0936,9.5053,29.4348-3.803,39.9304-14.2155,11.2111-35.2967,10.1217-47.4473-2.494-6.3402-6.5829-10.2422-14.4372-11.2775-23.566-.7041-6.2082-3.3119-6.5031-7.6086-3.014-8.4659,6.8745-10.8322,16.0707-9.1313,26.3531,3.3882,20.4819,21.9849,35.4198,44.839,37.6906,33.3401,3.3127,65.1209-18.4984,70.8418-51.0432,1.4656-8.3377,5.0951-15.6831,11.2776-21.6011,23.6657-21.9182,50.9055-28.802,81.4975-18.3733,37.6252,12.8262,58.6794,41.2079,70.5767,78.1081,5.0812,15.7599,9.1937,31.5894,10.1295,48.1716,3.3031,56.8831-12.2927,108.2307-44.2284,154.9281-30.274,44.2677-70.8127,76.5808-117.9467,100.0855-31.8014,15.8586-65.3403,28.1029-100.4754,34.9278-2.6567.5161-5.3518,1.4651-7.8728-.4643Z"/>
  <path class="cls-55" d="M752.8606,714.1921c5.4426-6.1327,10.8852-12.2654,16.3279-18.3982-.6346-3.5893,1.51-5.2303,4.3686-6.3741q16.2286.3381,14.6716-16.2443c-.0839-.8921-.2174-1.7782-.2228-2.6862,3.3545-10.1707,10.5644-17.97,16.2267-26.7155.9575-1.4788,2.649-2.565,4.3614-.5178,2.9532,9.1651,1.1493,18.604,1.4196,27.9098.2202,7.5825,2.2697,13.6649,9.5313,16.9915,14.0661,6.5484,23.0822,2.7146,28.2804-12.067.7095-2.0174,1.2366-4.0966,1.9557-6.1164,2.6374-7.6791,6.8081-14.4157,13.4798-19.0065,4.3382-2.9851,5.3236-7.996,8.4283-11.6412,5.0961-3.069,10.3025-3.1969,10.6394,3.788.7231,14.9913,3.0496,30.2163-2.408,45.5133,6.3072.7863,12.721,3.2916,18.1648-2.6808,2.2535-6.0881,2.6519-12.5488,3.7801-18.8516.8821-4.9285,2.567-9.4803,5.8213-13.2463,4.1973-4.8572,9.523-5.1574,12.9646.2133,3.5706,5.5721,8.077,10.4729,11.1731,16.3509.1216.5826.2311,1.1745.2579,1.7715q.6635,14.7146,13.8119,19.4169c-3.9503,13.9318-10.5777,26.6451-17.5337,39.2087-.8592-.4068-1.395-1.0965-1.6746-1.9929-1.0948-3.5111,2.1359-8.6263-2.9204-10.5098-4.5694-1.7021-8.758,1.1942-12.7968,3.1159-2.3974,1.1407-4.9259,2.3881-5.8185,5.0887-.1433.9197.0985,1.5472.772,1.678,11.1724,2.1704,11.8681,3.2144,11.5705,14.8705-.0685,2.6786-1.7524,5.224-.5533,7.9569-11.8248,20.0353-24.0818,39.7639-39.7805,57.0493-6.4964-1.471-11.757,1.7571-17.073,4.6501-1.8744,1.0201-3.9852,2.4182-3.4831,4.8422.6158,2.9712,3.3424,1.7765,5.2973,1.8695,1.5551.0739,2.9981.2802,4.0174,1.6303-10.1196,14.8184-23.5699,26.4027-36.6133,38.3821-3.0862-3.2437-2.2747-7.3723-2.3383-11.2173-.1759-10.6117.0018-21.2267-.102-31.8407-.0615-6.298-3.1997-7.9374-8.8101-6.2568-6.6988,2.0067-11.9844,5.5627-14.1438,12.6927-1.57.7853-3.0744,1.7698-4.7213,2.3214-7.0895,2.3746-10.7856,6.4756-9.9748,14.7654.5088,5.2018,1.6935,10.8859-1.2803,15.9859-3.5229-2.6159-2.7514-6.5448-2.8971-10.1062-.2629-6.4245.3597-12.8861-.3357-19.2855-1.167-10.7394-9.4723-18.8145-19.0518-18.8627-9.5415-.0479-17.8166,8.0019-19.0663,18.8137-.6689,5.7878-.0952,11.6355-.3419,17.4473-.1515,3.5709.5956,7.4825-2.839,10.1527-2.3951-6.7747-4.8567-13.5262-7.1626-20.3318-1.6288-4.807-4.1515-7.9604-9.8509-7.2829-6.4755.7697-4.1752,5.7254-4.2876,9.1635-.2993,9.1461-.1458,18.3074-.1724,27.4626-5.7143-1.0628-4.2025-5.8725-4.3266-9.3368-.3817-10.6477.0803-21.3194-.2497-31.9682-.1296-4.1805,2.1766-10.3505-3.7911-11.7012-5.7702-1.3057-11.2642,1.5566-15.1401,6.3415-1.4955,1.8464-2.0314,4.4108-3.6886,6.2463-2.7992-1.1089-5.5459-2.9863-8.4072-3.1851-9.1746-.6379-11.4057,2.2603-11.8082,12.1225-.581,14.2362,1.9657,28.5864-1.4844,42.7146-3.6815-2.9481-2.8494-7.1967-2.8919-11.043-.1622-14.6933.0425-29.39-.1283-44.083-.0499-4.2939,1.309-9.9147-6.086-9.7696-8.2133.161-13.6679,5.0586-13.1093,11.8204-7.9108,7.1632-7.4569,16.8738-7.1846,26.1639.2465,8.4116-2.4976,14.77-9.2127,19.5354-3.0155-6.4754-.4594-13.201-.7556-19.7993-.5029-11.2015.6942-22.5217-3.0347-33.4181,16.2395-9.9574,32.3395-20.1297,47.6721-31.4849,5.475-.7606,10.9801-.7617,16.486-.687,16.1001-.0968,16.7522-.7152,17.2082-17.094.1115-4.0075.1295-7.9885,2.5756-11.4392,6.0008-8.1464,13.3116-14.8782,21.6946-20.4524,3.9749,7.13.7852,14.8215,1.5628,22.2255.4431,4.2188.3611,8.524,1.4658,12.6563,2.7675,10.3524,8.1291,14.4539,18.2017,14.1322,9.3647-.2991,16.3534-5.6188,17.661-15.18,1.57-11.48,1.6291-23.1733-.2014-34.6663-1.5822-9.9344-5.3347-13.1707-15.5075-15.0034-2.3675-.4265-4.8714-.3948-6.5874-2.5173Z"/>
  <path class="cls-104" d="M274.0185,828.5716c-3.8536-6.1195-10.306-11.1623-6.3686-20.1314,1.3514-3.0785-1.7948-6.2402-3.344-9.1863,3.4799-4.2801,8.6273-4.1108,13.3103-4.8021,44.9408-6.6363,88.8462-17.4816,131.3028-33.7685,27.8512-10.6841,54.9362-23.1508,79.8057-39.9849,12.7726-6.598,24.4587-14.8511,35.5634-23.9798,11.9302-7.0901,22.7685-15.5777,32.3123-25.7246,2.6914-2.8615,5.7219-5.3195,8.9226-7.5682,3.6073-2.7901,6.6092-6.219,9.771-9.4799,15.8963-16.3002,30.4157-33.7231,42.6298-53.0344,2.6349-3.9467,5.3477-7.8369,8.0784-11.7189,17.1025-29.6607,32.8738-59.9078,41.1569-93.5192,4.8009-17.2274,8.4403-34.6887,10.7571-52.4309,1.7938-7.1366.9322-14.4494,1.4165-21.67-1.327-11.9489-2.6965-23.8896-2.0477-35.9503.2089-3.8819-.3014-7.866,1.7964-11.4434,1.2677-1.4912,3.1126-2.5702,4.8048-2.1043,9.2422,2.5449,18.9576,2.5632,28.1208,5.5027,6.211,9.833,2.5289,20.741,3.3421,31.1622.6316,13.7747-.4666,27.4679-1.9283,41.1401.0213,1.5894-.215,3.1497-.5547,4.6903-2.4945,14.5945-4.72,29.253-8.7172,43.5418-16.3286,61.1592-45.9583,114.9966-87.1085,162.7259-35.9136,41.6556-78.479,74.6334-125.9259,101.7099-19.6216,11.1976-40.273,20.0722-60.6593,29.5975-25.3481,10.1355-51.3407,18.2381-77.687,25.2583-21.0201,5.7196-42.3219,9.991-63.9112,12.7559-5.0257.6437-10.206,1.8929-14.8385-1.5872Z"/>
  <path class="cls-39" d="M260.5906,690.7773c23.578-5.2116,47.3866-10.4357,69.3858-20.2205,22.1585-9.8555,44.9368-18.2304,65.4994-32.4538,16.9823-11.7469,34.0862-23.0873,49.2688-37.0788,40.4445-37.2715,67.7687-82.5374,79.7105-136.6953,4.5497-20.6335,5.9831-41.6728,4.5188-62.8357.7679-2.2144,2.5469-3.1154,4.5791-3.9329,8.6968-3.4988,16.8504-7.7729,22.0572-16.1809.9184-1.483,2.2135-2.9963,4.3734-1.6118,5.0475,9.9505,4.0757,20.6811,4.053,31.2923-.2909,9.8726.6373,19.7461-.06,29.6123-.1097,1.5842-.2277,3.172-.6024,4.718-2.2746,14.2917-3.869,28.7248-8.187,42.6187-2.1305,6.1785-3.585,12.5942-6.1669,18.623-4.4892,11.6594-9.5832,23.0561-14.9242,34.3419-.776,1.5415-1.5888,3.0668-2.3803,4.6014-3.8715,6.0235-7.0466,12.461-10.7144,18.6088-5.6579,8.7773-12.1032,16.9804-18.2219,25.4223-1.6136,1.8756-3.0162,3.9113-4.3709,5.9855-10.5084,10.1208-19.287,21.9469-30.3904,31.4858-3.5748,2.7225-6.4413,6.2108-9.7389,9.2352-4.4068,2.9957-8.2334,6.7389-12.4868,9.9353-6.6178,5.0024-13.1467,10.1315-20.2505,14.4392-8.9498,7.3672-19.6364,11.9037-29.1867,18.3016-2.6487,1.7422-5.3759,3.3356-8.2274,4.7206-33.677,16.8783-69.2958,28.302-105.4372,38.2442-5.4487,1.4989-10.9968,3.8634-16.3828-.2947-.2932-.0578-.5922-.0951-.8789-.1764-10.0358-2.8451-16.4142-7.1544-7.6623-18.1928,1.4794-1.8658,1.7567-4.6977-.139-6.7306-4.6536-4.9902,2.2605-3.7236,2.963-5.782Z"/>
  <path class="cls-54" d="M353.0783,815.0953c26.0942-7.351,51.8471-15.7757,77.3404-25.0178,21.754-5.4628,44.2146-8.351,64.7872-18.1127,4.0541-.0482,6.3214,3.0657,9.1245,5.2551,10.5838,8.2665,21.892,4.3872,25.7934-8.6407,1.6343-5.4573.831-11.5913,4.5022-16.4774,8.8281-6.7758,17.4214-13.9657,28.508-16.8667,2.8859.6236,4.0527,2.9286,4.0387,5.4045-.0744,13.2077,3.3004,26.7577-3.7154,39.2999,10.1513,2.7024,12.8161.9503,13.6627-8.9158.2605-3.0351.0754-6.1385,1.7241-8.8995,8.4785-4.1213,14.7773-9.6081,13.6436-20.4138-.1957-1.8651.9743-4.1831,3.8761-3.7206,2.965,3.6359,2.607,8.0922,2.1363,12.1448-1.7125,14.7448,1.7827,26.79,15.7159,34.0697-25.7994,16.54-53.1254,29.9276-81.8803,40.3647-1.8691-1.3831-2.0244-3.6619-2.8982-5.5745-4.2913-9.393-12.2874-13.5397-23.0866-12.0381-8.0971,1.1259-13.3929,7.1855-15.0372,17.1726-.8499,5.1618.1202,10.384-.5389,15.5502-25.2914,10.3987-51.9914,15.2201-78.6466,20.2189-3.3939-3.1046-2.632-7.2983-2.6949-11.1715-.1739-10.704.166-21.4165-.1495-32.1158-.2362-8.0097-1.6468-8.9324-9.5349-7.3467-2.0801.4182-4.1707.8709-6.1653,1.5877-2.4421.8778-6.2272,1.082-5.8164,4.5256.3577,2.9989,3.8841,2.109,6.1457,2.3157,4.7995.4387,7.2333,3.4169,7.4087,7.8013.4992,12.4742,1.387,24.9737-.3775,37.4321-13.6837,4.0144-28.0508,4.0505-41.8624,7.3203-4.5685-4.8729-4.2957-11.0705-4.5237-17.0963-.48-12.6855,1.0294-25.449-1.4793-38.0552Z"/>
  <path class="cls-19" d="M807.1157,642.4135c-5.9294,9.2517-11.8588,18.5035-17.7883,27.7552-3.5983,8.0559-7.5748,15.7983-16.103,19.7658-1.3446,1.9534-2.6893,3.9068-4.035,5.8597-10.3908.0637-19.7969-9.3924-19.8898-19.8438-.0244-2.7442,1.2447-4.7043,3.1358-6.276,3.3429-2.7783,4.5879-6.2749,4.1186-10.5139-.1895-8.1356,6.9169-12.4777,9.7088-19.0665,3.7599-4.7912,5.7311-10.6823,9.35-15.5642,15.2627-23.2863,25.9929-48.7419,35.2792-74.8892,2.3065-5.3564,4.0177-10.9214,5.664-16.5093,2.2035-6.9465,3.4537-14.1556,5.6929-21.0911,1.3148-3.9395,1.5844-8.1332,2.8564-12.0854.2896-1.4162.6789-2.8005,1.1205-4.1758,4.384-17.2623,5.7671-34.9882,8.1379-52.56.4789-3.5501-.2618-7.4598,2.67-10.3822.6892-.5789,1.4734-1.0751,2.0509-1.7511,2.3512-2.7519.1686-9.4099,5.7818-8.8337,5.6065.5754,10.871,3.3709,13.8492,8.9701,2.2612,4.2514,4.6271,8.4461,6.9465,12.666.8745.6078,1.4976,1.4134,1.8823,2.4117.9775,3.0232.8349,6.1504.8449,9.2658-1.4073,15.3944-2.4343,30.8419-5.9646,45.9551-.7564,2.8704-1.4553,5.7605-2.1379,8.6524-4.1187,18.7914-8.3078,37.5658-15.6064,55.4444-5.0702,12.728-10.7742,25.1973-15.487,38.0765-3.0966,6.8656-7.1453,13.3038-9.1331,20.6744-5.2457,5.3312-7.0339,13.1963-12.9448,18.0452Z"/>
  <path class="cls-138" d="M818.5057,624.1555c1.0864-7.8776,4.7151-14.532,9.7051-20.5313,9.484-6.1336,12.2732-17.0642,18.1424-25.804,2.8103-1.8167,3.5508-4.9054,4.5468-7.7566,1.5241-4.3633,4.6952-7.0285,8.5426-9.1027,7.2468-3.9071,10.2606-2.5,10.571,5.6626.3015,7.9269.872,15.9142-.5274,23.8133-.6771,3.5882-5.2421,3.8932-6.5325,8.2963,9.1635,1.3521,17.9781,1.36,26.8408-.2966,7.5818-2.1855,14.3666,4.4791,21.9719,1.9508,25.273.8006,28.4001-2.3078,30.4589-27.8397.5835-7.2377-2.3042-14.7004,1.353-21.7163,4.3834-2.2939,9.4274-1.2472,13.9547-2.8216,2.3718-.4546,4.7067-1.1143,7.1282-1.3112,5.4226-.4408,9.382,1.7881,9.1303,7.4708-.6332,14.3,4.1187,29.0864-3.6833,42.8183-1.5927,2.8031,2.3106,2.9083,3.1528,4.628-2.294,21.2907-8.5673,41.5818-15.7494,61.57-2.8516,7.9363-4.8335,16.3148-9.5596,23.5051-5.9232-1.9458-6.0323-7.0854-6.1538-11.9502-.2969-11.88-.0505-23.7669-.1245-35.6506-.0773-12.4308-3.7125-14.6348-14.6221-8.795-2.2453,1.2019-5.2284,1.8896-5.3233,5.8919,3.9789,2.0522,11.7417-.5491,11.7014,6.9318-.0495,9.1871,4.6389,19.1892-3.4871,27.3725-5.0729-3.1731-7.3151-8.1608-9.7165-13.4939-3.1341-6.9599-7.8688-6.6986-12.1412-.3097-4.443,6.6441-4.0845,14.52-5.5572,21.8907-.5986,2.9967-.8355,6.0005-2.3536,8.7138-6.2187.7475-7.1388-3.6544-6.9835-8.0826.1709-4.8712-.1294-9.7449.2204-14.604,1.5917-8.0866,1.3563-16.2027.3131-24.315-.1827-1.1996-.07.35-.2171-.8672-1.8497-15.3053-4.5068-16.5473-18.2909-9.2468-4.9103,2.6006-6.6328,5.7284-3.807,10.8029.3363,4.1452-.4745,7.8439-4.3791,10.0397-7.6605,4.3077-11.7155,11.5051-15.3033,19.1064-4.6806-4.4528-2.722-10.2705-2.8868-15.5234-.2697-8.5995-.408-17.1027-6.0503-24.2666-4.2592-4.6089-9.838-5.3247-15.6351-5.4394-2.8969-.0574-5.9385,1.5416-8.6491-.7405Z"/>
  <path class="cls-124" d="M353.0783,815.0953c5.3555.9296,4.0989,5.1849,4.1767,8.652.3478,15.5108-1.0496,31.0893,1.8263,46.4994-37.8437,5.5039-75.8981,6.9004-114.0667,5.8008-9.3895-.2706-18.7726-.9173-28.1423-1.6144-2.0268-.1509-4.3059-.8154-5.922-2.0016-14.9581-10.9795-28.3762-23.681-41.988-37.9132,34.2287-.6745,67.2383,1.1802,99.8887-4.4769,1.7535-.3039,3.445-.9724,5.1664-1.4705,24.1919-1.0812,47.6829-6.3876,71.1327-11.9603,2.6156-.6215,5.2842-1.0157,7.9282-1.5153Z"/>
  <path class="cls-159" d="M490.6213,722.2405c-50.2555,33.0482-105.9991,52.1025-163.9374,65.6674-20.619,4.8275-41.6146,7.4049-62.3779,11.346-35.885,4.0382-71.888,3.7249-107.919,3.4429-10.5303-.0823-18.6838-2.3151-24.0536-12.2351-3.5904-6.6328-8.2444-12.6797-12.4225-18.9887,3.4137-3.699,7.7693-2.8672,11.9351-2.3318,33.4616,4.3005,67.0873,6.111,100.7475,4.5987,29.0604-1.3056,58.1075-3.6727,86.6469-9.9556,7.0648-.7926,14.1509-1.5127,21.0364-3.45,7.8387-2.4646,15.9979-3.5097,23.9549-5.4587,5.5173-1.0825,10.9269-2.6242,16.3682-4.0284,11.6097-3.1589,23.1363-6.5834,34.399-10.8563,6.1023-1.5402,12.124-3.3776,18.1302-5.2566,5.7828-2.1051,11.5389-4.2731,16.9111-7.3506,9.1846-3.7174,18.2894-7.6368,27.5875-11.0999.9068-.3462,1.8312-.5858,2.7787-.7719,2.0686-.2058,4.0156-1.1096,6.0838-1.1625,6.2441-.1598,7.1717,1.6505,4.1311,7.8911Z"/>
  <path class="cls-105" d="M370.1285,294.9073c-6.1008,6.7485-8.8327,14.957-10.9744,23.6895-11.4405,46.6469-66.365,62.5911-98.9656,40.6156-17.6977-11.9298-24.1399-29.7168-19.8318-46.1919,2.3597-9.0239,8.6415-13.8911,16.0052-17.5349,5.3591-2.652,3.9853,2.952,4.1712,5.1758.9325,11.1549,4.965,20.6913,13.2636,28.2561,16.7543,15.273,46.4349,6.6774,52.5463-15.2192,1.7875-6.4047.1733-11.8332-3.9234-17.0579-13.723-17.5015-11.7176-33.5302,5.2423-47.825,6.0148-5.0697,11.3738-10.9315,17.0321-16.4317,8.4987,5.6141,16.9975,11.2282,25.4963,16.8423,1.2595,1.7814.4466,3.2232-.7273,4.6151-4.8718,3.5989-7.92,8.9323-12.1892,13.0859-2.8757,2.7978,2.088,1.1397,1.297,2.5956,2.9,4.8678,4.4948,10.4537,9.076,14.3747,3.2529,2.7841,2.9864,7.0218,2.4815,11.01Z"/>
  <path class="cls-41" d="M867.8232,591.2932c-.0508-8.8644-.0855-17.7289-.1609-26.5931-.0292-3.4217-.7822-5.7012-4.7194-2.9494-4.5016,3.1463-10.6966,4.3962-10.2395,12.2917.1966,3.3977-3.1831,5.6757-6.9948,5.9059-3.4801-4.3168-2.0823-9.7882-3.3989-14.6172,6.0134-16.5561,11.2473-33.3388,14.3622-50.7279.3251-1.8154.3909-3.669,2.2691-4.6777,7.507-2.4203,15.8356,2.1143,23.0105-2.8172,3.1057-7.296.7676-14.9401,1.5404-22.3589.4187-4.0202-1.4346-9.323,3.2673-11.3383,4.0752-1.7467,6.8621,2.6562,10.0396,4.7217.7585.4931,1.4718,1.0333,2.1505,1.6261,2.9831,4.1035,3.1938,9.0635,4.1895,13.794,2.1548,10.2374,8.3129,15.6063,17.9999,15.79,11.2875.2139,16.7775-3.9109,19.3289-14.9856,2.2105-9.5946,1.4372-19.3431.8623-29.0524-.1939-3.2743-1.4078-6.6719,1.4087-9.492,3.9756-2.2403,8.182-1.6654,12.3891-1.0923q17.3522,2.9117,17.3795,20.6346c.0072,5.2057-.0472,10.412.0013,15.6168.0625,6.6957-.2753,13.1377-9.2775,15.7449,6.6695,4.6317,13.9212.3106,19.0376,4.723-.007,7.6704-.014,15.3409-.0209,23.0113-4.0759.7793-8.0474,1.8654-12.0291,3.1071-6.5474,2.0418-10.8516,5.8178-12.4402,12.5929-4.5461,1.2551-9.0599,3.5666-13.7408.4293-3.5842-.1748-3.6475-3.6032-5.1068-5.7011-4.6059-6.6213-10.1388-11.419-18.8708-9.8444-8.7401,1.576-14.7705,7.204-15.6987,15.6217-1.7724,16.0745-5.8315,32.8628,6.4286,47.1536.8047.938.9705,2.2047.9222,3.4541-3.0813,4.3409-6.9216,2.8137-10.4211,1.0096-3.6692-1.8914-7.4314-2.274-11.3843-2.0694-7.5634-2.7888-10.4752-8.2527-10.2694-16.3149.3196-12.5074.1906-25.0325.0409-37.5481-.1258-10.5116-2.065-11.7908-11.9872-7.9635-3.5492,1.369-7.6072,2.268-9.1053,6.2713.0461.9896.3467,1.6325.9964,1.7243,11.9961,1.6958,12.3768,2.0548,12.5309,14.0004.0945,7.3256.2449,14.661-.101,21.9769-.1616,3.4166.6183,7.6045-4.1886,8.9417Z"/>
  <path class="cls-9" d="M777.0941,271.0525c6.3062,13.7072,11.1313,28.1452,20.9891,40.0324,7.2756,8.7734,15.37,16.5541,25.8165,20.9266,8.9964,3.7656,13.3701,9.5741,13.1367,19.4006-.1066,4.4918,2.281,8.8598,1.2534,13.5159-2.0897.2563-3.44-1.0829-4.5376-2.4785-5.9029-7.5056-13.5551-10.2014-22.4692-7.3122-8.7748,2.8441-12.195,10.2033-13.2878,18.9141-1.383,7.2828-.4319,14.6257-.7023,21.926-.2282,6.1641-2.0811,10.8082-8.9998,11.5186-6.3664.6538-10.5241-2.0593-12.094-8.3863-.667-2.6881-1.8263-5.1652-2.797-7.7136-2.2366-9.3504-.6337-18.8907-1.2874-28.3268-.2269-3.2761.0129-7.0283-4.668-7.6593-3.426-.4618-14.8633,4.4748-15.3904,6.7735-.613,2.6738,1.48,3.2307,3.2059,3.2372,5.7019.0214,6.5182,3.8912,7.6124,8.3685,2.999,12.2715.5766,24.3487-.6157,36.4832-.2492,2.5356-1.4709,4.6411-3.7247,6.0133-10.2233,4.9075-17.8733,2.4603-25.414-8.0999-2.3728-11.5521.6451-23.5183-2.6391-35.0316-.5726-2.0075-.5804-4.1762-1.8694-5.9418-4.8001-8.098-10.0831-15.2917-21.237-11.5712-3.528-8.6105-5.8426-17.434-4.7504-26.8708.3361-.5249.8595-1.2592,1.2432-1.1424,11.4282,3.4803,21.4652.2887,30.7952-6.4289,6.8778,1.7686,14.0397,1.6812,20.9615,3.2103,6.059,6.7987,13.9347,4.6468,21.3324,4.1458,3.6538-.2474,2.8645-2.3827,1.598-5.1715-7.4174-16.334-4.6637-33.4585-3.3045-50.4396.0709-.8862,1.0338-1.4463,1.8437-1.8914Z"/>
  <path class="cls-66" d="M812.876,550.5268c-9.2432,26.4777-19.9499,52.2391-36.1996,75.2875-5.9406,1.0253-12.1135.6984-17.8185,3.0863-1.9912.8334-4.1222,1.8055-4.1328,4.3209-.0124,2.9385,2.5767,2.9062,4.5809,3.347,3.2207.7085,6.7026.8787,8.4234,4.4585-3.7251,6.0445-7.4501,12.0889-11.1752,18.1335-6.6363,7.4328-13.2726,14.8655-19.9089,22.2983-3.032-8.9175.0831-18.023-.7882-27.0297-.4681-4.8391.0043-9.7628-1.5121-14.5048-3.0435-9.518-10.1102-15.2422-18.3685-14.8175-10.2853.529-16.3809,6.1396-18.7901,16.5999-3.2872,14.2719-1.8042,28.4401.2973,42.6483-7.5992,11.6654-15.4995,11.9563-24.6987.9241-2.3577-18.8614-.2698-37.825-1.2647-56.7082.0329-6.2268,3.8223-10.8093,6.9924-15.5787,4.882-7.345,8.4819-15.4862,13.8777-22.4981,3.0783-1.4066,5.0447.4535,7.1465,2.328,12.4773,11.1275,18.6137,11.312,31.3772,1.0166,1.1996-.9678,2.3886-1.8396,3.9899-1.9074,6.0841,3.1004,12.2043,5.0844,18.9743,1.8354,2.2064-1.0589,4.7317-.9812,6.8412.7967,2.1366,5.0365,6.2845,5.2869,10.6455,4.1831,4.6839-1.1856,4.2643-5.382,4.4446-8.9933.6553-13.1219-1.1018-26.3107,1.048-39.389.9665-2.0121,2.2471-2.4397,4.2725-1.2105q10.1718,6.1732,17.8172-2.9867c5.0551.1247,10.5843-1.2999,13.9289,4.3596Z"/>
  <path class="cls-117" d="M320.8578,765.8017c-20.2527,5.6709-41.0986,7.3554-61.905,9.059-43.7236,3.5795-87.3562,2.483-130.8621-3.3471-2.6807-.3592-5.4502-.0447-8.1791-.0421-5.217-6.1924-9.7867-12.8014-12.853-20.3756,3.4387-3.4862,7.7772-2.8669,11.9487-2.4697,31.0987,2.9606,62.1254,1.5114,93.1026-1.6588,5.4003-.5526,10.9081.4109,16.1854-1.3235,20.8327-3.9751,41.8986-6.7587,62.3828-12.6327,7.7743-2.2294,14.7993-7.5241,23.51-6.1863,4.1667.8544,7.1641,3.3236,8.2931,7.3711,2.1924,7.8591,3.3302,15.8925,2.6009,24.1078-.2817,3.1726-1.3604,5.833-4.2243,7.4979Z"/>
  <path class="cls-139" d="M255.3167,166.3868c-5.7176,13.226-8.1183,26.714-3.7025,40.9206,1.8387,5.9156-.8808,9.5752-6.1348,12.5375-15.566,8.7762-25.9266,21.625-29.2301,39.7583-1.4243,7.8178-.0083,15.2,2.4351,22.5047,3.6598,10.9412,2.4977,15.9355-4.7496,19.6931-6.8224,3.5374-16.4988,1.1427-21.688-6.2628-7.446-10.6261-10.1506-23.0075-9.215-35.7088,1.6161-21.9387,10.5302-40.6295,27.5433-54.8052,4.3782-3.6481,6.5877-7.1703,5.5518-13.2344-1.6348-9.5702.3303-18.8234,4.8303-27.4625.4806.3667,1.1252.6323,1.4175,1.1151,6.3059,10.4118,10.5066,11.2644,17.6775,1.7642,5.506-7.2945,9.869-6.3877,15.2645-.8197Z"/>
  <path class="cls-99" d="M955.0571,456.7355c-4.1461-.0013-8.2923-.0027-12.4384-.004-3.7231-.5558-5.3023-3.7545-7.3736-6.2495-5.1007-6.1439-11.7771-7.0645-18.8513-5.4398-7.1287,1.6372-10.9585,6.8747-12.8419,13.8254-1.9507,7.1988-.6584,15.1513-5.0022,21.7826-1.4669-.2256-3.0204-.2159-4.3823-.7264-2.7278-1.0225-3.6006-6.522-6.7214-4.7945-3.3938,1.8785-1.0121,6.5509-1.4363,9.9662-1.0296,8.2901,1.8776,16.8523-1.664,24.9821-3.2166-2.7558-2.7685-6.6117-2.7783-10.1915-.0398-14.6468-.3288-29.2967.1619-43.9409.3236-9.6538.3613-9.6657-9.342-9.3815-2.1147.0619-4.2338.3414-6.2395-.6264-.1607-.6832-.3213-1.3664-.4837-2.0493.2732-8.1251.548-16.2503.8228-24.3756,6.9414-1.921,14.4671,1.5325,22.0828-2.448-7.4736-6.2883-7.2565-14.5172-7.1216-22.8068.1544-9.4739-.0552-18.9531.0865-28.428.054-3.6077-.3863-7.4269,2.5433-10.3534,7.1495,11.9192,10.5313,25.7358,19.8097,36.7104,15.8872,18.7917,35.4562,30.5251,59.6983,32.905,8.0086.7863,12.4699,2.1807,12.688,10.9664.0801,3.2342,1.6471,6.4308,2.536,9.6446-9.5028.2037-17.2802,4.1884-23.7527,11.033Z"/>
  <path class="cls-107" d="M579.5484,208.6314c4.328-6.5572,9.4915-11.0839,17.9796-7.5312,8.2505.6311,14.4347,5.7749,21.0238,9.9391,17.3187,10.9451,32.0295,24.7857,44.3518,41.2232,6.7519,9.0068,6.3216,10.7125-3.8554,14.925-2.2332.9244-4.5917,1.6179-6.4136,3.2994-2.3738,2.1908-3.2567,4.4572.1181,6.5966,10.6781,2.2879,11.3402,2.9776,11.4436,13.6588.0764,7.8907.4721,15.8075-.2514,23.6702-.641,6.966-10.8083,14.795-19.8298,15.2543-6.5939.3358-10.8549-2.9067-12.0489-9.7062-.9899-8.5337,1.6156-16.8147,1.7787-25.3242.2078-10.8402-2.0369-20.42-9.6165-28.3639-8.9805-12.985-22.0489-21.3127-34.3642-30.4599-5.1665-3.8374-10.1453-7.6379-11.9945-14.2472-.5765-4.4637-1.6544-8.9945,1.6786-12.934Z"/>
  <path class="cls-66" d="M595.8763,738.1064c-2.251,2.1713-1.5308,4.9991-1.5875,7.6183-.2686,12.4033-1.8511,14.1908-14.6796,16.3376-5.2696-11.6081-2.0788-23.7201-2.1084-35.6281,3.6555-9.1354,12.8291-12.5407,19.4683-18.4979,18.332-16.4489,35.5661-33.8576,51.0893-53.0419,3.6119-4.4638,6.4467-10.5333,13.5998-10.6544,4.1993,13.4927,4.1427,26.9935-.1902,40.4193-.6242,1.9342-2.4493,3.5005-1.2351,5.7937,15.146,10.4089,14.4164,18.5591-2.3267,26.814-.8253.4068-1.2992,1.2398-1.5717,2.1237-.1039,2.0617.6539,3.9865,2.5313,4.4537,12.3873,3.0827,11.1588,12.5864,10.3957,21.9243-9.0145,8.2595-18.6197,15.6991-29.3763,21.5402-2.5887-2.5375-1.7615-5.6244-1.3047-8.6135,1.3102-8.5741.6386-17.0309-1.2908-25.4374-2.3167-10.0937-7.4605-15.4491-15.8265-16.3887-9.212-1.0347-17.0177,3.5594-21.2243,12.394-1.4127,2.9668-1.3797,6.6664-4.3626,8.8431Z"/>
  <path class="cls-2" d="M648.9206,278.1762c-4.064-7.4175,1.3366-9.6781,6.4964-11.8158,13.4061-5.5541,12.4521-4.7165,3.4626-16.1979-16.7304-21.3681-38.1393-36.2321-61.3513-49.0623,9.569-16.0141,32.8335-17.4775,43.0879-2.6133,3.1061,4.5024,5.8459,9.2702,8.6199,13.9963,14.4384,24.5989,35.5282,39.3807,63.5514,43.9815,6.5244,1.4996,13.1461.7269,19.7003.5632,4.273-.1068,9.1494-1.5408,10.4033,4.0373,1.4284,6.3547-3.4724,8.2192-8.4825,9.3405-3.2617.2912-5.5586-1.7579-8.1091-3.3438-12.8214-7.9725-23.8573-3.82-29.3182,10.4002-2.5698,6.6917-.5397,13.9275-3.3235,20.4463-4.4609,2.2747-5.4028-1.9796-7.2107-4.1876-3.3388-4.0779-4.5285-9.7306-9.135-12.7926-.7387,12.5885-.1018,25.0773-.3089,37.5588-.2045,12.3204-8.7843,17.9973-19.828,13.0016-4.1355-1.8707-5.1243-5.4521-.8208-7.1527,6.4449-2.5467,6.3331-7.2626,6.3154-12.5178-.0278-8.2265-.3304-16.4701.0932-24.6743.3487-6.7522-1.5162-9.9352-8.7164-8.056-1.6371.4273-3.6225.5406-5.1261-.9115Z"/>
  <path class="cls-27" d="M774.8177,390.4964c2.4679,2.1262,3.3184,4.973,3.6849,8.0987.7066,6.0284,4.6783,6.9124,9.8273,6.6858,6.1032-.2685,6.2401-4.1665,6.5177-8.811.4864-8.1363-1.8634-16.4518,1.4192-24.413,4.0979,3.5982,2.5497,8.4965,2.7852,12.914.293,5.4999-.2725,11.0429.3037,16.5298,1.6796,15.9949,17.0174,23.0915,30.3782,14.1795,2.7067-1.8055,4.4744-5.1967,8.3235-5.1099,1.1667,7.4928-2.9588,14.7378-1.0237,22.2665-.1137,22.0926-4.2228,43.6282-8.9128,65.0828-3.6807-2.521-2.8388-6.4687-2.8887-9.9892-.16-11.2791.0047-22.5618-.0802-33.8423-.0862-11.4619-1.0885-12.1278-12.2295-8.4726-5.7324,1.8807-11.5553,3.47-16.2288,7.746-3.4268,3.1354-7.1665,2.5301-10.792.0202-2.4783-1.7156-4.4385-4.185-7.411-5.1607-18.5879-8.3551-30.9665-1.261-35.0828,20.1616-.9927,3.125-.9287,6.5777-2.7806,9.4092-1.6566,2.5327-3.6643,5.2838-6.9605,4.5555-3.2156-.7106-2.8559-4.0982-3.0889-6.7128-.1591-1.7861.0065-3.5842.2915-5.3725.1422-1.0787.3892-2.124.6758-3.1674,1.4761-15.0957-.1833-30.2004.3341-45.285.1522-4.4383-.7721-9.1718,2.754-12.9018,6.8607,4.0776,12.7435,12.044,22.2274,5.6896,11.2371,6.8152,15.0631,4.6772,15.5297-8.2819.1915-5.3202-1.6604-11.0707,2.4271-15.8191Z"/>
  <path class="cls-11" d="M313.2943,728.587c-14.2374,3.7829-28.0084,9.1581-42.5193,12.0728-13.6333,2.7384-27.319,4.9811-41.1052,6.6784-5.1824,1.8771-9.8229.5467-11.9284-4.3518-1.8117-4.215-4.9657-9.4544.9151-13.536,15.8059-3.0811,32.1271-2.9542,47.6511-7.7914,11.2959,1.5597,21.0655-4.2955,31.4549-6.8861,31.3376-7.8138,61.2114-19.8667,90.4639-33.5242,3.5713,5.7451,10.5616,6.8956,15.0565,11.4096-.3158,2.1073-1.9314,2.9894-3.5854,3.732-22.8034,10.2386-45.2145,21.4532-69.3169,28.4722-5.66,1.3967-11.1549,3.5871-17.0863,3.7246Z"/>
  <path class="cls-101" d="M218.6565,729.4503c-2.0908,12.47.0442,15.9376,11.0133,17.8878-8.581,3.309-17.7407,2.7514-26.6063,3.4864-29.8478,2.4747-59.7572,3.8404-89.6509.2222-2.0842-.2523-4.2309.0218-6.3512.0501-5.3614-7.2869-10.1583-14.8931-13.9872-24.1966,8.6261.7256,16.395,1.3404,24.1565,2.0387,33.7953,3.0404,67.6081,2.1915,101.4259.5114Z"/>
  <path class="cls-20" d="M532.4983,931.7297c-.485,6.7692.2407,13.1625-1.4629,19.5177-3.0851,11.5088-9.4467,16.7611-21.4389,16.8878-11.7712.1245-19.77-5.2117-21.6724-16.5051-2.1795-12.9379-2.6312-26.203.4407-39.1282,2.5976-10.9302,10.0853-16.2767,21.0181-16.1894,11.8564.0946,18.7832,5.4677,21.8148,16.6752,1.7097,6.3202.9651,12.7542,1.3006,18.7421Z"/>
  <path class="cls-67" d="M595.9599,930.8731c0-3.9777-.0765-7.957.0139-11.9326.3085-13.5645,7.7041-22.2699,19.6021-23.1626,14.085-1.0567,21.7154,5.4108,24.493,19.8675,2.178,11.3354,1.7808,22.5073-.485,33.6893-2.6055,12.8592-11.1277,19.4157-24.0379,18.7016-10.7957-.5971-18.6237-9.1257-19.4241-21.5639-.3333-5.1792-.0554-10.3984-.0554-15.5994h-.1067Z"/>
  <path class="cls-62" d="M696.4877,684.7608c-6.0253-15.1501-4.3094-30.6216-1.4184-45.987,1.8901-10.0454,10.2453-16.0613,21.3023-16.4599,9.1709-.3307,17.2929,5.2889,19.9429,15.5399,3.7169,14.3781,2.5722,29.0463.3311,43.6045-1.9029,3.5002-4.3523,6.5269-7.5592,8.8985-11.922,7.6335-25.7369,5.2621-32.5987-5.5959Z"/>
  <path class="cls-78" d="M743.402,854.0508c.0838-8.825-.1048-17.6633.3155-26.472.6254-13.1051,9.7834-22.6307,21.418-22.8241,11.8302-.1966,21.3459,8.7997,22.2598,21.9296.6754,9.7007.3937,19.4692.5384,29.2074-2.1317,6.2717-3.6349,12.8146-9.5916,16.9894-14.8595,10.4146-32.4428.9862-34.9402-18.8303Z"/>
  <path class="cls-145" d="M752.8606,714.1921c20.4033-2.5634,25.3889,9.9672,25.5589,25.3683.0843,7.642.2316,15.2903.0304,22.9271-.3236,12.2795-8.1198,21.0929-18.8922,21.7247-14.2747.8373-20.8469-4.3746-23.2518-18.3631-1.9089-11.1037-1.0829-22.2012-.0391-33.3037,5.5305-6.1181,11.0622-12.2356,16.5938-18.3532Z"/>
  <path class="cls-50" d="M838.0574,410.5704c-4.9518,6.4743-10.4249,11.7279-19.4565,11.5797-12.8235-.2103-21.3558-7.7601-21.9543-20.6864-.4531-9.7868-.2757-19.6034-.3794-29.4067,1.539-10.7607,7.3257-18.2227,15.7191-19.9985,12.0125-2.5416,20.4051,2.6089,26.3036,12.8696,3.227,15.2312,2.7176,30.4431-.2324,45.6423Z"/>
  <path class="cls-35" d="M732.8717,269.1456c1.0933-.5158,2.1422-1.1918,3.2887-1.5165,3.0424-.8617,6.2244-1.7874,5.2901-5.8893-.8819-3.872-4.3426-3.4136-7.3566-3.7134-7.0912-.7054-14.4204,1.8746-21.3066-1.5622,12.1392.001,24.123-.997,36.0757-3.5478,9.3214-1.9892,18.2882-.7424,23.8728,8.7424-4.0014,4.2163-10.1339,3.8732-14.6583,6.9738-1.4862,1.0185-3.5375,1.8513-3.2789,3.9721.3006,2.4656,2.6642,2.0865,4.3448,2.1504,5.7758.2196,6.8925,4.2052,7.0386,8.813.3301,10.4141.4206,20.8423.0012,31.2482-.3435,8.5218-2.251,9.8343-11.6672,9.4382-7.073,4.1772-13.4671.7492-19.9385-1.8121-1.7718-2.1466-1.4126-4.6578-.8559-7.0044,3.4794-14.6669,2.3261-29.113-1.7878-43.4517-.0636-1.0736.2532-2.0198.9381-2.8406Z"/>
  <path class="cls-25" d="M450.3819,210.499c8.0579-8.5948,16.1767-17.1328,24.1474-25.8092,3.8216-4.1601,7.2152-4.5793,11.3295-.2477,11.4687,12.0746,25.5061,20.1211,40.9661,25.8104,4.8102,6.2181,4.4531,10.5781-1.4594,17.9475-10.4458,2.355-20.0395-2.2935-29.9238-4.0806-9.9956-1.8073-19.8676-4.4638-29.8621-6.4238-3.2072-1.1017-6.4646-.8962-9.8109-.812-3.8766.0976-7.4964-.9211-5.3869-6.3847Z"/>
  <path class="cls-95" d="M595.8763,738.1064c1.7449-16.4701,10.2647-24.7052,24.9611-23.9693,8.8031.4407,14.5706,5.0072,17.463,13.422,4.5037,13.1026,3.6582,26.3961,1.5836,39.7507-8.0293,6.4419-16.5522,12.1233-25.6663,16.8937-12.1365-2.3669-17.9974-9.2452-18.1214-21.2934-.0851-8.2678-.1474-16.5358-.2199-24.8037Z"/>
  <path class="cls-32" d="M665.4476,932.7062c1.0857,6.0384-1.8519,13.4886,2.2689,20.459,1.4849,2.5115-1.6799,3.1807-3.5608,3.9448-3.4594,1.4055-6.8306,2.8929-9.5912-1.3391-2.2472-3.445-3.222-7.3668-3.4705-11.2566-.6817-10.6735-.964-21.3864,1.7058-31.9001,2.6541-10.4515,10.3544-16.4209,21.1949-16.469,11.0836-.0492,17.8539,5.4106,20.7368,16.6164,2.2441,8.7224,1.8147,17.6223,1.5394,26.4596-.2184,7.0092-6.0835,8.7435-11.3645,9.8808-3.6603.7883-3.0418-2.9016-3.0624-5.1642-.0754-8.2455.2933-16.5081-.1165-24.7333-.2806-5.6319-1.6413-11.7364-9.0305-11.2426-6.9158.4623-7.1044,6.4025-7.2309,11.7404-.0942,3.9732-.0186,7.9505-.0186,13.0039Z"/>
  <path class="cls-16" d="M696.4877,684.7608c9.737,8.5653,20.7917,9.3147,32.5993,5.5951-14.9273,17.3497-30.6247,33.8874-49.1097,47.4906-3.6141-3.7871-2.3484-8.617-2.5552-13.0472-.2742-5.8751-2.8351-8.1171-8.6885-7.3424-5.2738.6979-10.5402,3.1349-15.9708.7204.6943-2.2179,2.1302-3.858,4.4606-3.7836,7.7482.2476,10.2236-5.3033,11.6135-11.2336,1.6322-6.9639-4.8784-6.9714-8.7589-9.1311-.762-.4241-1.3726-1.125-2.0531-1.6983,4.7545-4.2505,11.8263-1.6732,16.6402-5.7487,7.6728,4.2542,15.2436,7.2642,21.8225-1.8215Z"/>
  <path class="cls-26" d="M463.0104,929.0194c.0064,6.7225-.0309,13.4454.0192,20.1674.0345,4.6265-1.4659,9.9528,5.611,11.2261,2.0991.3778,2.1039,2.7719,1.7235,4.6241-.4406,2.1459-2.1832,2.9464-4.076,2.8884-8.1595-.2502-16.3217-.5345-24.4664-1.0659-2.2108-.1441-5.1169-.2286-4.8991-3.898.186-3.1313,2.1169-4.3606,4.865-4.0495,6.7189.7606,7.2862-3.3501,7.2441-8.5133-.0871-10.6927-.1815-21.3985.2555-32.077.2267-5.5395-1.2916-7.2218-6.71-5.6403-3.073.897-7.0355,1.8495-8.4901-2.5175-1.4331-4.3022,2.209-5.6179,5.1469-7.2564,20.5499-11.4608,23.77-9.6768,23.77,13.278,0,4.278,0,8.5558.0063,12.8338Z"/>
  <path class="cls-106" d="M694.7323,822.6437c-.7162-9.2689,14.2906-19.7679,23.2319-16.4052,3.7055,1.3936,2.5898,4.4111,2.6137,6.868.1335,13.7173.0141,27.437.1314,41.1545.0251,2.9461-.9688,6.1269,1.2192,8.8016.0534.3006.0764.6112.1646.9014,1.2176,4.0037,10.7847,1.6647,7.1775,8.854-2.5377,5.0575-8.1649,2.3867-12.3738,2.7074-5.4022.4119-10.8857-.0212-16.3177-.3596-2.4244-.151-4.7999-.7675-4.5713-4.307.1988-3.0776,1.7702-4.6654,4.5593-4.4614,7.3327.5362,7.4255-4.0466,7.2235-9.4279-.3439-9.1598-.6095-18.3384-.4053-27.4976.1388-6.2224-.2578-10.632-8.1531-6.9038-1.2401.5856-2.9873.0779-4.5.0757Z"/>
  <path class="cls-119" d="M754.5159,324.2544c9.1253-1.2331,10.5902-7.0365,9.8788-15.2102-.7355-8.451-.3273-17.0144-.2119-25.5258.071-5.2401-.9244-8.4799-7.2234-6.0978-2.6197.9907-5.4373.909-6.5758-2.6819-1.1497-3.6265.464-6.0512,3.5717-7.2859,6.0979-2.4227,11.7829-6.3251,18.7822-5.7931,2.5851,2.5917,3.5959,5.9287,4.355,9.3891-.0931,14.9902-.9137,29.9881.7964,44.9449.3404,2.9773-.2578,6.2972,4.1351,6.9155,2.3221.327,3.8302,1.799,3.4155,4.4935-.3547,2.3056-2.3842,2.8412-4.0139,3.1352-7.4994,1.3529-15.0896,1.4924-22.6449.6083-3.9191-.4586-4.4243-3.5907-4.2649-6.8918Z"/>
  <path class="cls-70" d="M650.8168,821.2205c-2.1503-.3946-5.1539.8875-5.5323-2.9506-.2925-2.9674.1532-5.4998,3.3652-6.6408.569-.202,1.1284-.4374,1.6768-.6913,20.2133-9.3587,22.6438-7.9048,22.7464,13.9633.0772,16.4645-.0207,32.9297-.0406,49.3946-6.9463,2.9563-14.2186.8811-21.3261,1.354-2.7604.1835-4.5137-1.2454-4.6006-4.345-.0863-3.0771,1.5234-4.6572,4.3157-4.6221,8.1778.1024,8.8663-4.9078,8.5741-11.4643-.3924-8.8076-.6789-17.6971.0731-26.4568.6982-8.1329-1.9147-10.326-9.2517-7.541Z"/>
  <path class="cls-127" d="M410.6376,932.173c0,9.182-.2245,18.3717.0883,27.543.1741,5.1057-1.5725,7.4778-6.6842,6.8848-4.5026-.5224-9.0063-1.0621-13.4854-1.7525-1.7573-.2709-3.9015-.6987-3.8743-3.0653.0271-2.3573,1.8465-2.8842,3.8516-2.6257,6.465.8337,6.7367-3.5266,6.7114-8.1133-.0557-10.0992-.4513-20.2097-.0937-30.2933.2247-6.3332-1.5526-9.1061-8.1697-7.7556-2.8434.5803-6.5018,1.4432-7.6945-2.5904-1.1569-3.9128,1.2498-6.2952,4.6332-7.7958,1.1073-.4913,2.2084-.9992,3.2941-1.5369,18.9628-9.3877,21.3869-7.9436,21.373,12.737-.0041,6.1213-.0006,12.2427-.0006,18.3641h.0506Z"/>
  <path class="cls-143" d="M884.0777,355.476c.0211,16.4863.0761,32.9726.0387,49.4587-.0089,3.9175.0419,7.5333,5.3401,7.5971,2.5455.0306,3.9236,1.3219,3.6938,4.026-.236,2.7778-1.5792,4.9566-4.4458,4.7372-7.4074-.567-15.084,2.0928-22.219-1.784,7.2837-14.0522,3.5316-29.2591,4.6091-43.9714.5383-7.3515-1.2763-10.6371-8.8624-6.9358-5.7523-.6806-5.8869-4.415-4.1284-8.5299,2.2522-5.27,17.7612-11.3555,23.058-9.2785,1.4489.5682,2.2895,1.8962,2.7841,3.391-.1451.4495-.1011.8794.1317,1.2896Z"/>
  <path class="cls-122" d="M576.7951,931.8837c0,9.1797-.3121,18.3739.1133,27.5335.2694,5.8023-2.2414,7.6557-7.3987,7.4468-4.5338-.1837-9.072-.2609-13.6047-.4651-1.8219-.0821-3.8358-.22-3.8309-2.797.0045-2.3199,1.5278-3.2675,3.5882-2.9938,7.6278,1.0137,7.3845-4.3388,7.4364-9.3246.1083-10.4021-.3078-20.8292.2811-31.2003.3957-6.9679-1.9818-8.7407-8.2864-6.9548-2.3231.6581-5.5617,2.7566-6.5151-1.7471-.7345-3.4693-.1715-6.0194,3.6693-8.1805,20.3538-11.4537,23.6946-9.8003,24.3435,13.081.1474,5.1966.0216,10.4011.0216,15.6019.0608.0001.1216.0001.1824.0001Z"/>
  <path class="cls-30" d="M929.9427,670.491c2.2773-9.0431.4959-18.2187.8779-27.3238.2147-5.1156-2.6632-4.2442-5.9275-3.3286-2.7895.7825-6.2373,2.3144-7.6808-1.8901-1.2845-3.7409.4237-6.4479,3.9502-8.0733,6.7765-3.1236,14.0287-9.1983,21.0137-5.0117,5.1841,3.1071,1.8081,11.315,2.0095,17.2066.3963,11.5963.2875,23.22.0243,34.8241-.0908,3.9966,1.0015,7.1092,3.7422,9.7959-.6861,1.6377-1.3722,3.2749-2.058,4.9117-2.3666.1919-4.7471.2804-7.0976.5958-7.0359.9438-9.8986-1.804-8.8856-9.1308.5686-4.1134.0569-8.3789.0318-12.5758Z"/>
  <path class="cls-77" d="M955.0571,456.7355c3.3553-9.3481,16.2165-15.3203,23.7531-11.0316,1.4314,21.8962,4.3813,43.7125,3.4584,65.7362-6.0592.154-12.1179.3339-18.1777.4499-2.5809.0495-4.9037-.3426-5.1444-3.7178-.2449-3.433,1.3451-5.6085,4.668-5.1824,6.6333.8507,6.5367-3.011,6.4178-7.8214-.2344-9.4798-.4244-18.9947.1353-28.4488.3981-6.7269-1.2452-9.7895-8.4137-8.2521-2.2521.483-4.9095.5689-6.6966-1.732Z"/>
  <path class="cls-82" d="M450.3819,210.499c.3758,3.8142,1.9626,5.5681,6.0433,4.1323,2.8793-1.0131,5.9326-1.5345,8.4818,1.0545-3.5592,5.5223-4.6272,11.6139-4.924,18.1445-.3944,8.677-3.1797,10.8448-11.5404,9.2651-6.0169-1.1368-11.989-.7094-17.9894-.7343-8.1176-.9801-16.1064,3.2023-24.2504.6624-4.687-2.8745.5782-5.8304-.0459-8.75-4.4954-4.347-12.8521,2.457-16.0551-5.6504,22.4215,1.8405,42.6608-3.7067,60.2802-18.1241Z"/>
  <path class="cls-53" d="M400.9437,862.9265c-3.9444-10.3378-1.1218-21.0785-1.7719-31.6137-.4145-6.7172,1.4305-14.6914-10.1268-10.5824-2.7117.9641-5.3742-.6703-5.9106-4.0835-.4734-3.0124.3006-5.6568,3.4437-6.5671,6.6406-1.9235,13.277-4.0893,20.0692-5.1788,5.2377-.8401,5.2947,3.7055,5.3122,7.4676.0735,15.8429.1156,31.6858.1687,47.5291-3.5602,1.6426-7.0364,3.5986-11.1846,3.0288Z"/>
  <path class="cls-150" d="M803.9101,822.8189c-3.2841-4.5492-2.2454-7.8381,2.7915-10.0839,1.6503-.7359,3.155-1.7964,4.7744-2.6116,15.2877-7.6956,18.4815-5.8527,18.402,10.8935-.0608,12.8089-.3738,25.6166-.5741,38.4245-3.7911,2.9468-7.5824,5.8939-12.6536,9.8358,0-11.543.0217-22.0039-.0098-32.4646-.0138-4.5844,1.3884-10.0506-.5904-13.5323-2.5382-4.4658-8.0051,1.6831-12.14-.4614Z"/>
  <path class="cls-131" d="M490.7746,839.6791c-5.0328-11.0213-1.5404-26.5497,7.3331-32.6063,8.7307-5.9591,22.8216-3.1089,30.945,5.7097,3.3184,3.6024,3.3111,7.5477,3.2823,11.7867-3.0759,2.5304-6.8305,3.2535-10.5634,4.0348-4.7773.5364-4.1243-4.2546-6.1092-6.4416-1.8925-2.0852-3.7556-4.0074-6.7787-3.4518-3.1169.5728-4.1319,3.1214-4.7721,5.8648-.87,3.7289.1774,7.9308-2.7066,11.1628-3.3014,1.9783-6.7514,3.5486-10.6304,3.941Z"/>
  <path class="cls-125" d="M625.2989,874.3261c-12.292,5.6116-27.5993-1.0875-30.4967-16.0661-.979-5.061-2.3174-10.2882-1.9435-15.3224.5529-7.4451,4.1311-13.3635,12.3601-14.7909,5.1718-.0851,5.5071,3.9226,5.938,7.5016.6187,5.1389.559,10.3566.2244,15.4986-.483,7.4225,2.4047,11.5843,9.9104,12.1565,5.2745,2.2126,10.7505,4.3703,4.0073,11.0227Z"/>
  <path class="cls-156" d="M524.9976,226.8749c2.3696-5.3438,4.4727-10.7174,1.8273-16.6224,15.8298,2.8323,31.5846,3.8411,46.8933-2.5461,2.3556-.9828,4.0279-.266,5.8316.9231.0916,4.8427.1844,9.6834.2773,14.5241.9482,1.7093,1.125,3.4778.4048,5.31-5.1986.8297-10.4628.3259-15.7192,1.7983-5.8998,1.6526-9.4562-2.1272-11.4095-7.6127-1.0029-2.8165-2.0708-6.4684-5.9392-5.3756-4.3841,1.2386-3.0373,5.1907-2.5661,8.4121.4284,2.9291,2.0411,5.76.6389,8.8315-5.0015,2.9478-8.8926-.8031-13.1837-2.1802-2.3496-1.8134-6.8847-.7895-7.0554-5.4621Z"/>
  <path class="cls-155" d="M581.3897,858.4893c0,2.7558.1032,5.517-.0367,8.2655-.0916,1.8014-.1435,3.7758-.8949,5.3393-2.1437,4.4607-28.0148,6.221-30.5751,1.8985-2.4604-4.154-1.3781-8.7097,3.8862-8.615,7.6284.1371,8.0953-3.7522,8.0153-9.6922-.0844-6.2687,9.7146-13.5095,16.0544-12.614,2.69.38,3.5517,1.9995,3.5745,4.3956.0349,3.6738.0091,7.3481.0091,11.0222h-.0328Z"/>
  <path class="cls-47" d="M957.7783,550.1516c-2.3298-6.6065.6693-10.97,6.649-12.3196,5.8659-1.324,10.7674-8.5965,17.8202-3.3805-1.7033,15.6226-3.2378,31.2666-5.1883,46.8576-.8532,6.8198-.7299,13.8865-3.7983,20.3068-2.092-.0007-4.1851.04-6.2758-.0138-1.9995-.0515-3.5962-.9382-3.7795-3.061-.1865-2.1607,1.2301-3.4558,3.2692-3.4272,5.5994.0788,5.1402-3.8793,5.1302-7.5458-.0275-10.0077-.4012-20.0266-.0421-30.0192.2614-7.2738-.9697-11.4477-9.3309-7.7628-1.2909.5689-2.9598.2656-4.4538.3656Z"/>
  <path class="cls-75" d="M366.9943,931.1468c-.2825,5.4898.0755,11.1212-1.0756,16.4189-.7508,3.4555.1338,9.6878-6.642,8.7646-6.1311-.8353-8.9336-4.3667-7.4474-10.8016,1.4504-6.2797,2.1892-12.6726,1.7245-19.1017-.3281-4.5394-1.5018-9.0207-1.7637-13.5594-.167-2.8937-5.6893-7.0861.618-8.553,4.7757-1.1107,10.1596-.8956,12.3815,5.9665,2.239,6.9149,1.8485,13.8573,2.2047,20.8657Z"/>
  <path class="cls-45" d="M621.6037,864.9789q-12.7799.1853-12.8153-12.9283c-.0119-5.1262-.072-10.2539.0337-15.378.0711-3.4436-.032-6.6996-3.6037-8.525,6.1053-4.7664,13.4159-7.2563,20.1366-10.8598,1.5343,13.1301,3.9393,26.2389.8907,39.476-.7392,3.2099-.8942,6.7418-4.642,8.2151Z"/>
  <path class="cls-36" d="M621.6037,864.9789c2.8079-10.7384,5.428-21.4532,2.2945-32.6613-1.4271-5.1047-.1277-10.1262,1.4559-15.0303,1.7594-1.1956,3.5179-2.3917,5.2757-3.5863,4.8024,4.4092,6.1225,9.8812,5.641,16.3047-.9207,12.2835,1.6198,24.7484-1.8518,36.914-2.3705,3.3079-4.4927,6.9275-9.1205,7.4058,3.9225-5.189-.3816-7.0685-3.6949-9.3466Z"/>
  <path class="cls-29" d="M737.9692,911.5793c-.8434,5.9776,2.3915,14.2006-7.1596,17.8466-5.1859,1.9799-7.6879.922-7.2426-4.7864.6001-7.6939.4277-14.2946-10.3861-11.6744-1.5296.3707-3.8093.1941-4.0294-2.4383-.1858-2.2223.0847-4.4658,2.1591-5.6517,3.1377-1.7941,6.4114-3.3624,9.6943-4.879,15.0346-6.9458,16.9748-5.7017,16.9643,11.5832Z"/>
  <path class="cls-56" d="M390.1017,228.6231c4.5158,3.4691,9.7477,1.1619,14.6076,1.8515,2.2021.3125,5.2506-1.159,6.284,1.7706.7751,2.1973-1.7604,3.5125-3.0094,5.1053-1.0991,1.4018-2.1888,2.8111-3.2826,4.2171-.5823,1.9235-1.9892,3.2157-3.75,3.7067-10.788,3.0077-20.3571,9.2679-31.2959,11.8626-2.1364-.9865-2.9673-2.3885-1.4138-4.5425.6494-1.1235,1.2987-2.247,1.9484-3.3694,4.021-4.3163,5.8837-9.7641,7.6104-15.2218,2.1116-6.674,6.0505-8.5902,12.3013-5.38Z"/>
  <path class="cls-43" d="M916.9396,751.0176c-3.4951-3.8811-1.7584-8.6431-1.6639-12.8945.1285-5.7786-1.1349-8.7058-7.4174-6.954-2.6969.752-5.5416,1.5221-6.7085-2.2411-1.0164-3.2782.849-5.1682,3.4577-6.6229,1.857-1.0355,3.6236-2.245,5.5164-3.2044,5.1276-2.5991,10.7765-6.5315,16.1818-3.5364,6.0975,3.3786,1.273,10.0909,2.055,15.2461-3.807,6.7356-7.614,13.4714-11.421,20.2072Z"/>
  <path class="cls-40" d="M652.7628,718.1774c6.1389-1.2562,12.2495-2.6853,18.4249-3.7193,5.9628-.9983,9.1357,1.4166,8.8202,7.9493-.248,5.1355-.039,10.2936-.0318,15.4404-2.8663,3.6091-6.5223,6.1338-10.7145,7.9208-1.9677-1.4073-2.2654-3.5175-2.122-5.6677.4844-7.2683.0586-13.2274-9.8155-13.3197-4.2377-.0396-4.6408-4.8143-4.5613-8.6038Z"/>
  <path class="cls-92" d="M339.3486,905.2041c-5.3172,11.776-3.5119,22.5681-4.028,33.1497-.127,2.6035,1.9123,7.2478-2.7251,7.2308-4.2631-.0156-9.7912-1.3072-10.2509-6.8305-.7293-8.7639-1.1525-17.7605.9558-26.3681,1.9574-7.9916,8.9695-6.1935,16.0482-7.1819Z"/>
  <path class="cls-60" d="M714.5709,752.9973c-.0065,6.4053.1918,12.8192-.0711,19.2137-.3325,8.0867-3.3725,13.5141-12.8117,11.9796-2.3622-.384-4.8252-.1375-7.2418-.1807-1.1953-4.9403-.8828-9.8777.027-14.8141,6.6992-5.3995,13.3984-10.7989,20.0977-16.1984Z"/>
  <path class="cls-158" d="M883.946,354.1864c-4.7055-2.257-23.0108,2.2266-25.1534,6.3895-1.9737,3.8346.1699,6.2726,3.4401,8.028-6.022.8202-8.4038-1.8479-6.1467-7.6362,1.5736-4.0354,3.4049-7.6525,1.2477-12.083-1.0355-2.1265.0397-4.1339,2.0636-5.4091,8.4127-5.301,22.0469.6528,24.5487,10.7109Z"/>
  <path class="cls-140" d="M304.7398,921.0192c-2.1292,3.541,3.4675,11.2477-4.7714,11.0832-6.7921-.1356-10.1834-5.538-9.7955-12.8307.3033-5.7017.1678-11.0568,8.3996-10.6301,9.8267.5092,4.3917,7.9092,6.1673,12.3776Z"/>
  <path class="cls-61" d="M501.405,835.7382c-.0186-3.6447-.3872-7.3312.035-10.9231.5016-4.2676,1.6365-8.5272,6.9219-9.3399,5.4147-.8326,8.3885,2.5939,10.6566,6.723,1.1032,2.0085.2024,4.961,2.753,6.4058-6.2438,3.9617-13.0707,6.2292-20.3665,7.1341Z"/>
  <path class="cls-149" d="M530.3712,859.782c-1.7131,15.7065-14.1347,20.501-31.1259,12.5435,9.765-6.4792,20.6994-7.4055,31.1259-12.5435Z"/>
  <path class="cls-65" d="M865.9176,821.059c-.5986.0112-1.1971.0289-1.7958.033-3.6822.0259-8.4661,4.962-10.7329-1.3377-2.2442-6.2368,3.1225-8.3615,7.4919-10.2981,4.0896-1.8126,8.3554-3.2457,12.6061-4.6539,2.7789-.9207,3.8252.5958,3.672,3.2648-3.8636,4.2279-6.4488,9.5819-11.2413,12.992Z"/>
  <path class="cls-97" d="M766.8595,896.2861c3.1538.8557,8.8414-2.1304,9.9542,2.5193.9329,3.8983-4.399,5.7803-7.7635,7.7142-1.5633.8988-3.125,1.8257-4.5739,2.8961-2.43,1.7952-5.0702,2.3584-7.5208.5665-3.5672-2.6082-2.2975-6.6312-2.0886-10.1317.2342-3.9232,3.4636-3.4777,6.1374-3.5544,1.8055-.052,3.6137-.01,5.8553-.01Z"/>
  <path class="cls-72" d="M279.5406,909.0342c4.0416-.4248,7.3604.7361,6.6186,6.3707-.3475,2.6398,1.4097,7.3771-3.5601,6.5005-4.465-.7876-10.1241-2.0059-10.6903-8.0162-.4389-4.6587,3.6161-4.7909,7.6318-4.855Z"/>
  <path class="cls-33" d="M694.4733,769.1957c2.2885,4.9426,3.3034,9.8827-.027,14.8144-5.4037-.3955-11.065,1.5728-16.1451-1.7922,5.3908-4.3411,10.7815-8.6817,16.1722-13.0223Z"/>
  <path class="cls-157" d="M266.0808,114.5561c-.5732-1.8966-2.2811-1.4691-3.6193-1.7989,3.4202-2.8954,7.4583-4.5558,12.3591-6.4923-1.0993,5.563-5.0738,6.7641-8.7398,8.2912Z"/>
  <path class="cls-91" d="M370.0053,256.1983c10.6352-7.1223,23.0141-10.0353,34.696-14.6308,8.5982.9713,16.8423-3.0577,25.4582-1.8346,6.8466,1.5921,14.0055.7911,20.7988,2.7629,18.4669,2.7471,34.6237,10.2703,47.9474,23.644,1.9413,1.9486,3.9054,3.865,6.8795,4.0207,8.497.6549,13.5667,4.5427,14.964,13.689,1.0819,7.0815,7.5159,11.3883,11.2877,17.1193,11.5345,16.5679,20.0946,34.4964,24.3699,54.3838.4813,3.3028,1.3963,6.5209,1.9078,9.8206.0181,4.7637,3.2068,9.6463-.4848,14.2763-2.6173,12.58-13.7653,15.2852-23.0161,20.1306-1.7919.9385-3.8854,1.2905-5.8397,1.913-3.0435-28.097-9.4176-55.3068-24.5171-79.4472-18.7087-29.9104-44.7329-48.8788-81.0736-49.0398-20.3863-.0903-38.2051,7.9066-53.2546,21.9012-1.6495-10.0489-12.7044-15.3357-12.9735-26.0834,1.9672-6.6082,6.6037-10.4509,12.8502-12.6256Z"/>
  <path class="cls-59" d="M183.7097,351.8288c-.3946-7.1108.8393-12.3092,4.5158-16.798,3.3686-4.1129,7.5533-6.1694,12.8059-4.8194,5.2685,1.3539,8.0133,4.9934,8.5962,10.4898,1.0777,10.162,5.9134,18.3148,13.3213,25.1407,6.4665,5.9583,6.8404,14.4697,1.1569,20.7991-6.5353,7.278-13.9217,7.9098-20.9753,1.3434-10.8986-10.1457-20.0225-21.3503-19.4209-36.1556Z"/>
  <path class="cls-13" d="M269.8867,433.3471c-7.2336-.199-13.6347-2.4208-18.7589-7.7954-4.9281-5.1689-6.6379-10.7881-2.5063-17.2933,3.9636-6.2407,9.0027-8.5929,16.1113-5.1064,2.9087,1.4266,6.0946,2.5688,9.2748,3.084,8.1438,1.3194,13.7275,5.5299,13.6416,14.0682-.082,8.1517-7.9283,13.3479-17.7625,13.0429Z"/>
  <path class="cls-86" d="M361.0968,362.9473c8.7966-.0885,14.4475,7.8813,12.7231,16.2236-2.0777,10.0519-14.7814,19.7879-24.9305,19.079-5.6041-.3915-9.7795-2.9337-11.8403-8.3847-2.1017-5.5589-.5522-10.4308,3.8824-13.8762,6.6117-5.1368,12.5938-11.4824,20.1653-13.0417Z"/>
  <path class="cls-63" d="M887.6675,750.0652c.6745,5.777-.445,11.1619-1.5106,16.582-2.6885,13.6757-12.031,20.0206-25.9225,17.4463-10.5265-1.9507-19.2882-14.529-17.3783-25.5217.9042-5.205.8018-10.1646-.0421-15.3798-2.7404-16.939,8.4181-29.7252,25.0558-29.1781,9.4026.3092,16.0273,6.0757,17.9674,16.2247,1.2595,6.5888,2.8119,13.2079,1.8303,19.8266Z"/>
  <path class="cls-68" d="M871.4093,640.9794c-8.0975-1.9439-5.8564-6.4-2.0587-10.3868,1.7372-1.8238,4.7466-2.5216,7.2807-3.4473,12.7479-4.6576,19.3951-9.6018,18.7634,11.7858.914,8.5115.9331,17.0225-.0155,25.5328-.5154,5.1423,2.0521,10.1279-.1077,15.5397-1.3204,3.3088,1.078,6.3264,4.903,7.2878-.6711,3.565-2.7639,5.0651-6.3825,4.9255-4.5092-.174-9.0302-.0698-13.5456-.0316-2.7377.0231-5.9005.2119-6.5693-3.1296-.5766-2.8803,1.8142-3.8268,4.4102-4.5955,3.3561-.9937,2.7798-4.2738,2.789-6.9391.034-10.0232-.4135-20.0678.1024-30.0633.4339-8.4106-2.1958-10.5978-9.5693-6.4784Z"/>
  <path class="cls-34" d="M809.1656,752.116c0-3.6646-.1293-7.3348.028-10.9925.2913-6.7711,1.0114-13.6887-9.546-10.0164-1.6757.5829-3.8007.0113-4.4046-2.143-.7457-2.6602.5043-5.2062,2.534-6.3914,5.7223-3.341,11.5846-6.593,18.1005-8.1163,5.7801-1.3512,6.4358,2.3448,6.4216,6.9203-.0484,15.574.0224,31.1491.187,46.7223.0303,2.862-1.2667,6.5146,2.3638,8.1221,2.2738,1.0069,5.1617,1.3462,3.9653,4.653-.8534,2.3586-3.6403,1.6952-5.5846,1.714-6.3452.0617-12.6928-.2192-19.04-.249-3.4258-.0162-5.2324-2.7148-2.2092-3.8913,10.5859-4.1199,6.276-12.8123,7.1157-19.9235.2489-2.1078.0385-4.2707.0385-6.4084h.03Z"/>
  <path class="cls-115" d="M818.5057,624.1555c8.9652-2.7481,17.6068-3.2494,25.1762,3.6918-3.1961,4.8006-8.7362,5.2886-13.3776,7.4393-4.02,1.2896-7.1686,3.6345-7.1455,8.1952.0668,13.1646-2.2977,26.506,2.498,39.38.0166,3.9003-.0118,7.7747-5.5181,7.5588-9.3623-1.2711-12.2102-8.2064-12.671-16.1563-.6139-10.5878-.2792-21.2315-.3519-31.8511,2.9428-6.628,5.403-13.5627,11.3898-18.2579Z"/>
  <path class="cls-154" d="M831.2999,633.0017c4.1279-1.718,8.2558-3.4361,12.3828-5.1543,6.2928,5.0288,7.2552,12.2419,7.597,19.5603.3535,7.5629.3142,15.1444.4469,22.7178-1.3303,7.9947-3.3577,15.7702-10.6716,20.41-6.8315,4.3336-13.9799,5.7538-20.9163-.115,3.4185-1.3812,4.0185-4.2461,3.8784-7.5005,10.2952-3.6039,12.7232-11.2649,12.2511-21.5482-.4485-9.7697-.0842-19.4738-4.9683-28.37Z"/>
  <path class="cls-44" d="M773.2244,689.9346c5.3676-6.5886,10.7352-13.1773,16.1029-19.7659,3.4081,5.6976,1.5479,11.9522,1.7316,17.958.1389,4.5364-3.5388,4.2051-6.5462,4.152-3.8879-.0686-7.9618.5575-11.2883-2.3441Z"/>
  <path class="cls-159" d="M659.9073,644.3469c-21.8239,26.593-44.3507,52.492-71.738,73.556-2.6313,2.0238-5.4872,3.7502-8.2389,5.6147-4.0896,7.2406-11.8864,9.2419-18.3079,13.187-8.5694,5.3772-17.1388,10.7543-25.7082,16.1314-5.3967,5.8054-12.5719,8.7484-19.3777,12.2878-3.8853,1.6181-7.2555,4.2172-11.0662,5.9839-2.9936,1.7295-6.47,1.0937-9.6334,2.0061-13.9411,8.6378-29.4734,12.5616-45.4141,14.5205-6.6538.8177-12.8643,5.9283-20.0037,2.443,38.0322-17.4565,75.4036-36.1194,109.2044-61.2497,77.9358-57.944,134.3021-131.4842,160.8736-226.5628.3253-1.164.9806-2.2342,1.4818-3.3482,3.0944-4.5306,5.7966-.8943,8.3525.5977,4.6141,2.6934,6.3695.9607,7.372-3.7684,2.1538-10.1614,1.2613-20.5842,2.9275-30.7784.4411-2.6988-.9833-4.5993-3.5638-5.6351-2.4525-.9846-5.3719-1.4013-6.2237-4.6126.1132-1.1645.2263-2.3289.3395-3.4934,3.116-5.8337,8.6432-8.5334,14.4015-10.4334,4.8069-1.5862,8.5651-.2442,8.1107,6.0321-.5471,7.5579,1.2242,15.2144-.9588,22.7002l.1539.1651c-.4549,17.3701-3.1219,34.3364-9.0319,50.7206-1.1362,3.1499-2.1299,6.3523-3.467,9.4209-1.8368,3.7937-2.3557,8.0205-3.7653,11.9552-3.1498,8.0312-4.7097,16.6916-9.281,24.1694-4.8238,8.4815-6.9848,18.5115-14.4758,25.4473-5.0058,12.5371-12.8736,23.374-20.166,34.5526-2.7392,7.211-6.9328,13.3919-12.7958,18.3904Z"/>
  <path class="cls-21" d="M532.2497,541.3083c5.0087-11.6348,10.0174-23.2697,15.0262-34.9045.2989-.0533.642-.2316.8903-.1421q21.6303,7.8013,34.8274-11.7735c.6968-1.0349,1.6734-1.7556,2.769-2.3359,3.233-1.1823,6.465-1.1819,9.6973-.0259,3.3101,1.5804,4.1656,4.9825,5.7761,7.8619,7.9959,14.2952,25.0809,14.7839,33.5961.9664,1.738-2.8202,2.9464-6.0651,6.4369-7.3186,8.1861-1.3605,16.3603-1.5366,24.534.0932,1.5976.6359,2.5441,1.8674,3.0996,3.454-8.0177,33.7824-23.8131,64.0563-41.4358,93.5061-5.2468-6.4919-3.2542-14.186-2.4112-21.1254,1.0911-8.9824.2559-17.6725-.3964-26.5219-.4706-6.384-2.9836-8.2975-8.7389-5.7271-3.2849,1.467-6.9523,2.3125-9.3538,5.4305.5681,3.2175,3.2574,2.0579,5.0318,2.4624,4.1944.9561,6.8489,3.7596,6.3445,7.7481-1.7356,13.7231-.1005,27.5634-1.836,41.2559-.1152.909-.692,1.6882-1.1859,2.4738-8.2273,3.7624-17.0823,5.1197-25.8413,6.8024-5.1827.9958-8.4909-1.8576-11.0421-5.9772-2.7719-4.3545-2.6891-9.2808-2.7139-14.177-.0651-12.8354.2371-25.6763-.1296-38.5048-.2533-8.8591-2.5628-10.2691-10.7496-7.4102-5.7957,2.0239-11.3896,4.3458-14.31,10.4178-9.3808,5.2923-15.5333,3.0401-17.8846-6.528Z"/>
  <path class="cls-88" d="M532.2497,541.3083c4.1057,6.2691,9.053,9.8706,16.5718,5.3227,2.6941-.8035,5.4014.0139,8.1031-.0609,5.5368-.1533,8.4971,2.6294,8.6935,8.1886.3873,10.9648.3086,21.9307.0262,32.9001-.1131,4.3912-3.3009,6.9158-5.9195,10.5855,7.3049,2.2665,13.8052,1.4364,20.1458-1.7724,4.7836,9.1871,12.0317,3.6829,18.0408,2.5453,5.2794-.9995,10.3569-3.0272,15.8753-2.581,2.9806.7426,4.0737,3.3946,5.5867,5.6218-11.7482,19.8016-26.4973,37.1372-42.8864,53.1251-5.2122-5.773-2.3131-12.8035-2.7235-19.2461-.6399-10.0472-2.2471-11.3931-11.5312-7.5794-4.1978,1.7243-8.4582,3.4334-11.7565,6.7833-2.1668,1.9738-4.8931,3.4975-7.2272,1.1942-4.1314-4.0768-9.0263-2.1024-13.6172-2.6114-8.5749-8.3787-18.9001-10.4706-30.3381-8.5984-4.5764-2.3512-2.3243-5.52-.6807-8.2023,3.2759-5.3462,7.5119-9.9357,12.0933-14.1953,18.7978-7.4149,24.2739-19.2833,20.3787-44.2316-.6937-4.4427-2.5344-8.8086-.8381-13.4021.1434-1.5443.5425-2.9509,2.0031-3.7859Z"/>
  <path class="cls-111" d="M596.0197,493.422c-3.6181.0025-7.2363.0051-10.8544.0076-4.1923-5.3714-2.821-11.7742-2.3498-17.5702,1.3638-16.778-4.3952-28.421-21.042-33.3664-.0986-10.5828-.1973-21.1656-.296-31.7483.8845-.6137,1.7012-.5325,2.4514.2341,3.841,8.2828,8.2715,8.8833,13.9726,1.6901,4.1526-5.2396,4.5431-11.5729,4.9159-17.9921.3393-5.8412-1.8589-12.1356,2.5205-17.4035,4.8788,1.3697,3.8443,5.6322,4.0519,9.0023,1.0166,16.512,1.8264,17.6167,17.8715,21.9748,1.4572.3959,2.9238.7256,4.2129,1.5382,2.949,5.1628-3.9843,3.8167-4.3344,6.809,9.8379,5.8731,22.9797,3.7363,29.4119-4.8448,6.6467-.067,13.3061-2.7186,19.9246.1386,2.6099,4.8989,7.3327,5.4957,12.116,6.4285,4.3483.8481,9.0853.1347,13,2.9431-.3023,7.6459,1.944,15.4943-1.7846,22.8679-8.7255,1.9632-17.3766,4.1301-24.93,9.3065-4.4745,4.1082-9.332,6.8845-15.6463,4.6233-2.6206-1.2176-4.059-3.6146-5.5838-5.8749-4.7258-7.0057-11.4831-8.487-19.2049-7.2322-7.7576,1.2606-12.1594,6.2238-14.4431,13.5343-2.2452,7.1871-1.0445,14.5716-1.464,21.8637-.256,4.4497,1.146,9.2725-2.5159,13.0705Z"/>
  <path class="cls-100" d="M510.4138,603.8534c-.8102,6.6161-7.9781,8.714-10.0955,14.4697-.7365,2.0022-3.9368,3.5281-.593,5.8901-9.4089,13.9895-9.4574,29.7865-8.6303,45.7345.6252,12.0546,8.0519,20.6144,18.4605,21.4113,11.2811.8636,18.3603-5.2424,20.7975-18.3733,1.9133-10.3086,2.012-20.6786-.0057-31.0236-.5665-2.9042-2.2187-5.8786.2891-8.692,4.706-3.209,9.1765-4.5325,13.0237,1.3329,1.2556,1.9144,3.0257,1.5921,4.741.5085q16.5373,3.8345,17.5148,21.7862c.1499,2.7192.404,5.435.6948,8.1448-10.7878,9.5971-20.8557,20.0497-32.7507,28.3291-2.6789,1.8646-5.1286,4.2863-8.5898,4.7728-16.1776,4.6881-29.9273,15.2279-46.2617,19.5379-.5126.0805-1.0275.1418-1.5447.1839-7.2675,1.2725-14.5497,5.5018-21.7765-.0969.0569-4.7032,3.9842-3.6661,6.502-4.0775,4.4534-.7275,7.0874-2.6639,7.32-7.474.25-5.1698-2.5149-7.4325-7.054-8.905-3.2107-1.0415-8.3051.2457-8.5649-5.5921,4.528-3.4437,10.4892-1.0195,15.162-3.8202,4.7679-2.8831,5.7533-7.6632,5.8845-12.6267.2978-11.2665-.0939-22.5458.1608-33.8082.1579-6.9838-4.088-11.1116-8.2123-15.5344,10.0388-10.4472,20.0775-20.8944,30.1161-31.3416,4.2746,3.3768,10.27,4.2178,13.4123,9.2635Z"/>
  <path class="cls-74" d="M678.0363,276.5394c4.7569,7.3232,9.5138,14.6463,14.2707,21.9695,4.9279,4.1012,4.6167,10.6668,7.3354,15.8077,1.4624,4.6533,4.4048,8.9246,3.6639,14.1585,1.6617,8.8757,3.3235,17.7514,4.9852,26.6271,2.5263.8712,2.8101,3.1336,3.2499,5.3021.404,5.7601,3.9877,11.6423-.6,17.2277-10.7139,2.8965-20.3349-3.4528-30.6782-3.6917-5.6179-6.631-1.3297-15.3108-4.5832-22.4354-3.3489-8.5865-1.1068-17.138-.5099-25.8676.9484-13.8712.1245-27.8585.3746-41.7908.0438-2.4416-2.3436-6.3154,2.4916-7.3072Z"/>
  <path class="cls-103" d="M678.1485,351.7502c3.1151,7.1629.538,14.878,2.1147,22.1901.8177,14.0266-2.9588,28.3127,2.4556,42.1227.5371,1.3698-.7095,3.4514-1.1273,5.2012-6.6258-.2996-13.2537-.8526-19.8788-.8201-5.9447.0293-6.3661-3.0992-5.1286-7.6553,4.7417-3.492,6.6468-8.0417,6.3226-14.0818-.3738-6.9656-.4822-14.0013.6628-20.953.6935-4.2104-.05-7.2735-5.1954-7.3892-3.5219-.0792-6.7011-1.0219-7.3825-5.2158-.7286-4.4848,1.1287-8.0194,5.1154-9.6805,7.0051-2.9186,13.7152-8.4952,22.0415-3.7183Z"/>
  <path class="cls-144" d="M619.3734,602.058c-3.7415.0272-5.2928-2.1606-5.586-5.6217.5911-14.2868,1.173-28.574,1.7796-42.8601.2477-5.8342-1.9848-7.9155-7.6938-5.6057-2.0925.8466-5.0449,2.0904-6.0243-1.3026-.8459-2.9301-.849-6.1051,3.0696-7.4736,1.9785-.691,3.771-1.9049,5.7-2.7618,15.1604-6.7339,15.0205-6.3251,16.6857,9.6074,1.5636,14.96-.3166,29.7823.1612,44.6537-2.6965,3.7851-5.3943,7.5747-8.092,11.3643Z"/>
  <path class="cls-38" d="M732.7363,469.5253c.0107-7.0065-.2323-14.0253.1014-21.0161.3549-7.437-3.0316-7.6295-8.2316-4.8384-4.5226,2.4274-8.9525,5.0309-13.4233,7.556.7193-14.1467,1.4384-28.2931,2.1576-42.4394.9335-.2337,1.6828.0422,2.2515.817,1.7361,6.4164,4.8146,6.2577,8.5367,1.6312,5.7454-7.1412,6.7061-15.446,5.7758-24.2929-.7813-7.4298-3.3594-14.861-.4637-22.3805,5.6344,5.8353,4.2106,13.5748,4.9491,20.5267.8347,7.8581.2253,15.8723.2438,23.8187-.0114,17.3833.033,34.7669-.0894,52.1494-.0203,2.8719,1.2646,6.1947-1.8079,8.4682Z"/>
  <path class="cls-148" d="M710.8435,454.7199c1.9709.6617,3.9406,1.8793,5.913,1.8836,6.6407.0145,7.1699,4.0024,6.5851,9.1811-1.1535,10.2159-2.2321,20.4415-3.2109,30.6759-.2901,3.0329.144,6.3239-3.4853,7.6389-3.3128,1.2003-5.7823-.4122-7.9755-2.8059-1.7834-1.9463-3.4097-4.615-6.6913-2.3755,2.9553-14.7337,5.9101-29.4659,8.865-44.1982Z"/>
  <path class="cls-102" d="M566.6107,665.0428c-6.5452-4.0186-2.7734-10.3947-3.1452-15.6178-.4789-6.7284.6958-13.5593-9.8465-9.5991-3.4587,1.2992-4.4884-1.9692-5.2175-4.7142,2.9939-5.1794,19.7571-13.4254,24.6996-12.14,3.5711.9287,3.3327,3.8971,3.3496,6.6168.0532,8.5333.0263,17.067.0334,25.5976-3.2891,3.2836-6.5812,6.5701-9.8734,9.8566Z"/>
  <path class="cls-112" d="M654.2951,451.2118c8.1677-3.595,15.4353-10.4903,25.5127-7.0818-1.1075,18.2131-5.411,35.7569-10.9047,53.0525-.6702-.6204-1.3398-1.2414-2.0095-1.8624-4.3756-7.3013-1.9447-15.3553-2.3619-23.0659-.2911-5.3804-.3029-10.1434-6.989-11.8018-4.931-1.223-5.522-4.9492-3.2476-9.2406Z"/>
  <path class="cls-146" d="M714.6037,409.193c-.4351-.088-.8565-.2203-1.2637-.4013-1.2923-10.3506.7338-20.9572-2.3986-31.1595-.4972-5.5164-.9944-11.0327-1.4917-16.5491,4.7964-2.9332,7.8157.0498,9.305,3.8326,5.1942,13.1933,5.4172,26.7288,1.1838,40.2688-.7559,2.4177-2.3929,4.2521-5.3349,4.0086Z"/>
  <path class="cls-96" d="M479.0086,717.6825c11.9232-7.5618,25.0526-12.7121,37.5591-19.1083,2.8006-1.4324,5.7369-1.5934,8.7022-.4337-10.0691,10.2027-22.3006,17.2364-34.6485,24.0999,1.5375-4.473.9259-7.3446-4.6405-5.6349-2.3228.7135-4.5338,1.4431-6.9722,1.077Z"/>
  <path class="cls-134" d="M561.7735,442.493c13.6464-.7351,23.2586,8.7833,23.1641,22.7184-.0638,9.4057.1427,18.8132.228,28.2191-2.4137,5.8125-3.9468,12.0782-9.5022,16.0921-8.9764,6.4854-19.0418,5.467-28.3877-3.1214,1.8155-5.9771,3.6308-11.9569,5.446-17.9366,3.9636.0374,3.2971,3.6472,4.3202,5.8597,1.2033,2.602,2.3819,5.0739,5.7551,4.8708,2.7478-.1655,4.1956-2.121,5.3577-4.3701,4.33-8.3806,1.7243-32.6417-4.4648-39.8752-2.3211-2.7128-3.9506-5.3789-2.5411-9.0436.2082-1.1377.4165-2.2754.6247-3.4131Z"/>
  <path class="cls-128" d="M466.8854,625.9314c7.9428.1998,10.35,5.8897,10.5666,12.2668.4556,13.4161.2422,26.8603.085,40.2903-.0612,5.2271-2.5494,9.3069-7.1912,11.8877-1.3916-.6796-2.2852-2.2506-3.5807-2.7571-13.794-5.3931-13.3485-17.0382-11.3052-28.32,1.4839-8.1933-.9924-16.5408,1.9807-24.4765,2.2916-3.8901,5.956-6.2958,9.4449-8.8913Z"/>
  <path class="cls-141" d="M510.4138,603.8534c-5.0917-2.1733-11.633-2.2111-13.4113-9.2652,1.3997-1.9942,2.8004-3.9901,4.2011-5.9859q14.3865-.5642,15.9773-16.4204c.3013-3.035,1.3924-5.8651,2.0027-8.8165,3.2785-6.3435,6.5408-12.6972,11.065-18.2714,5.3702,14.1523,4.9424,28.6129,1.8444,43.0836-2.0659,9.6501-9.3194,14.6241-21.6792,15.6758Z"/>
  <path class="cls-31" d="M561.1488,445.9061c.7426,1.9521.9339,4.8737,2.3276,5.6801,4.7889,2.7706,8.1972,6.1878,8.4548,11.9765.5145,11.5604,1.6832,23.202-1.7429,34.5102-1.07,3.5317-4.1466,4.8736-7.9465,4.6845-4.3564-.2168-6.4291-2.972-7.8027-6.5384-.9515-2.4702.6858-5.5701-1.7179-7.7537,2.8095-14.1869,5.6185-28.3731,8.4276-42.5592Z"/>
  <path class="cls-46" d="M457.4406,634.8227c4.4511,12.5555-.8633,25.1152-.0595,37.7066.3187,4.9919.4513,8.6103,6.6484,9.3935,4.1635.5262,6.8579,3.6162,6.316,8.4529-5.1174,3.601-10.9953.8319-16.4041,1.9933-5.5075,2.8181-7.546-1.0175-8.9854-5.109-1.4948-4.2493-1.1107-8.7966-1.0764-13.2467.1147-6.9089.2501-13.823-.632-20.7043-.3898-3.0406-.5288-6.0152,1.6629-8.5364,3.6351-4.0109,7.7669-7.3852,12.5301-9.95Z"/>
  <path class="cls-110" d="M563.314,410.8201c-.6123-.0251-1.2246-.0503-1.8367-.0755-.0777-10.5666.6111-21.2242-3.6477-31.2949.763-5.2348-2.9393-10.0137-1.5352-15.3138,7.3879-4.8945,13.4788-3.7129,16.271,4.3744,4.1413,11.9943,3.9063,24.454.058,36.546-1.2321,3.8714-3.6914,8.0107-9.3094,5.7637Z"/>
  <path class="cls-123" d="M395.5388,677.3204c9.8243-6.076,19.6486-12.152,29.4729-18.2281,7.2962,4.3906,3.1193,11.2704,3.6729,17.1266-3.8218,8.8014-7.6129,17.6671-19.5561,16.9169-.7455-8.5674-9.2021-10.4118-13.5896-15.8154Z"/>
  <path class="cls-129" d="M426.5814,677.446c-.9046-6.084,1.8603-12.4882-1.5715-18.3526,6.6347-4.7745,13.2676-9.5479,19.9006-14.3211,1.4044,9.6288,2.2222,19.2892,1.5483,29.0305-7.3808-2.9787-12.8292,4.7748-19.8773,3.6431Z"/>
  <path class="cls-152" d="M519.1836,563.3655c.1267,5.7265.5708,11.4677.313,17.1766-.5099,11.2926-4.5216,13.6161-14.8571,9.0864-1.0879-.4767-2.2896-.6894-3.4372-1.0253,5.9946-8.4131,11.988-16.8253,17.9813-25.2377Z"/>
  <path class="cls-80" d="M395.5388,677.3204c12.8159,3.9141,15.4045,6.9065,12.7471,14.7358-1.6042,1.6243-3.3217,1.7034-5.1416.3834-6.3328-1.8844-14.2984-1.5535-14.9171-11.1912,2.4367-1.3092,4.8741-2.6186,7.3116-3.928Z"/>
  <path class="cls-94" d="M561.6225,736.7047c4.6888-6.3926,12.2898-8.6702,18.3068-13.1873-.1055,12.8484-.2121,25.6966-.3194,38.5448-.0413,2.451-.2411,4.9116-.0966,7.3513.9528,16.0819-3.0701,14.8507-17.7326,14.4849-1.9889-.0495-3.5657-.7798-3.8131-3.0521-.1827-1.6774.3756-3.1761,2.0735-3.5888,5.3237-1.2942,4.8759-5.4852,4.8812-9.4867.0108-8.276.0864-16.553-.0252-24.8274-.0339-2.5094,1.0594-5.9074-3.2746-6.2389Z"/>
  <path class="cls-120" d="M515.7331,763.6653c6.7272-3.6096,13.4543-7.2194,20.1812-10.8291-3.0729,4.5149-1.9299,9.9671-3.0623,14.9265-1.7779,7.7862-5.2343,13.6377-12.9781,15.7781-7.5989,2.1005-14.1416-.196-19.3162-6.3821-1.3133-1.5701-3.1336-2.7085-4.7209-4.045,2.5047-2.5142,5.8482-2.9613,9.0566-3.7416,4.6154.0355,12.1178,5.6531,10.8396-5.7067Z"/>
  <path class="cls-121" d="M717.9168,530.3496c6.5105-19.0066,12.2284-38.1976,13.5869-58.4303.0518-.7712.9058-1.4875,1.3862-2.2291.0002,3.6312.0002,7.2621.0002,11.2414,8.323-1.3342,5.9005-8.9934,8.7136-13.2451,3.6318,2.9649,2.6169,7.1779,2.7037,10.9793.125,5.4795.2804,10.9257,1.9599,16.1871,2.4934,7.8106,7.2229,13.2855,15.7005,14.3501,8.7187,1.0947,16.1845-.8088,20.4797-9.5569,1.0628-2.1646,2.1395-4.3788,4.4523-5.5606,10.6747-3.2669,16.8503,5.2627,24.6452,9.5506,2.2901,5.5938,8.6273,5.1604,12.455,8.4714-.9347,7.5175-2.5857,14.8464-5.6386,21.8063-6.8669,3.6436-15.2946,4.8008-19.6008,12.5239-.0856,5.5038-2.8375,9.7241-7.8267,11.0008-6.8057,1.7415-8.7598-4.9627-12.2408-8.8151-.7668-.5143-1.3305-1.1965-1.7611-2.0211-1.7336-3.3198.4682-8.977-4.5218-10.1019-5.6071-1.264-10.4972,2.034-15.1843,4.8308-1.4977.8938-3.31,2.1185-2.4753,4.2935.6519,1.6986,2.5127,1.4869,3.9529,1.3109,6.8676-.8395,8.1105,2.8521,7.7759,8.8053-.5986,10.6525.219,21.3532-.4488,32.0009-.205,3.2677.941,9.0553-6.0149,6.8612-2.2879.5988-4.7276.868-6.8359,1.8566-7.107,3.3323-13.3029,2.7395-18.4679-3.6219-2.7748-3.7126-.9976-7.717-.3414-11.4329,1.2279-6.9531,1.441-13.9051,1.4425-20.92.0022-10.477-3.0438-19.1464-12.9615-24.2405-2.34-1.202-4.9916-2.4892-4.9348-5.8947Z"/>
  <path class="cls-142" d="M811.4279,504.6488c-4.0426-.3675-7.1223-2.721-10.1734-5.0865-4.1299-3.2018-8.632-5.064-13.9503-4.2458-3.887-5.1101-2.2903-11.0903-2.3007-16.687-.019-10.0657.3058-20.0568-6.0975-28.7182-.8892-1.2028-1.0795-2.8069-.2706-4.2975,8.0543,7.3461,14.486,6.1365,24.9842,1.3425,21.2525-9.7048,24.9053-13.2239,24.1247,15.3481-.324,11.859.2234,23.7422.3756,35.6148-.2554,1.0892-.5118,2.1779-.7682,3.2667-4.9151-1.8574-3.9628-6.3265-4.0583-10.0262-.2827-10.9561-.031-21.9215-.1266-32.8825-.0997-11.4377-2.5962-12.9959-12.8584-8.1481-1.6204.7655-3.37,1.4152-4.5896,3.7414,2.4641,3.5782,9.0619,2.9844,9.7632,8.9838.5372,4.5948.2336,9.1115.1935,13.6626-.0562,6.3941.2129,12.7984-.1581,19.1781-.1971,3.3887.6959,7.5778-4.0895,8.9537Z"/>
  <path class="cls-153" d="M866.1476,445.9372c4.0214-3.6906,9.2599-2.4002,13.8913-3.0393,5.1283-.7076,5.2497,3.5737,5.1788,7.5441-.3552,19.8774-.5931,39.7569-.8722,59.6356-8.4812,2.3023-16.9544,3.2128-25.4037-.1508-.518-2.6677-.3375-5.2022,1.3829-7.4454,8.4551-2.9533,11.0818-9.1177,10.4518-17.773-.7434-10.2125,1.4887-20.8217-4.6166-30.1849-.004-2.8621-.0081-5.7242-.0122-8.5863Z"/>
  <path class="cls-79" d="M811.4279,504.6488c4.0612-3.815,1.4048-8.739,1.8296-13.0652.8059-8.2045.4161-16.5232.6707-24.7899.1757-5.7059-1.0089-9.6897-8.0544-8.3284-2.0192.3901-4.4306.3737-5.2012-2.4006-.8156-2.9364.8809-4.5798,3.1949-5.8251,1.6066-.8646,3.1913-1.7748,4.8263-2.581,15.0313-7.4128,17.2409-5.9489,17.5997,10.4811.3134,14.347-1.1341,28.7435,1.0583,43.0441-3.0875,3.0266.1642,8.0307-3.351,10.9227-4.7568-1.5152-13.1696,3.2429-12.5729-7.4577Z"/>
  <path class="cls-10" d="M866.16,454.5235c4.9008.816,6.2135,4.388,6.2738,8.6668.1467,10.3905.2814,20.7845.1752,31.1746-.088,8.6196-6.3393,8.2506-12.2844,8.1166,1.9452-15.9861,3.8903-31.972,5.8354-47.958Z"/>
  <path class="cls-136" d="M842.3097,565.3311c4.899,3.9809,2.3506,9.7249,3.3993,14.6172-2.5443,10.3661-5.8963,20.1244-17.4977,23.6766-.5463-8.4574,5.1829-14.7195,7.664-22.1204,1.8418-5.4946,4.2684-10.7896,6.4345-16.1735Z"/>
  <path class="cls-58" d="M767.7293,641.027c-3.651-1.3566-7.2832-2.614-11.3146-2.2602-2.3509.2063-5.0044.3373-5.4527-3.114-.3764-2.898.0422-5.7977,2.8477-7.0416,7.2909-3.2327,14.6483-6.9009,22.8662-2.795-2.0983,5.598-4.7195,10.8851-8.9466,15.2108Z"/>
  <path class="cls-69" d="M798.7607,546.4375c1.8458-8.5306,8.0999-12.5257,19.6009-12.5226-1.0265,5.8055-2.6996,11.3949-5.4853,16.6111-4.1641-3.2642-10.1979.0414-14.1156-4.0886Z"/>
  <path class="cls-81" d="M911.7119,601.2649c-8.2306-6.4919-11.943-14.9577-11.371-25.5175.3295-6.0836-.008-12.2015.2342-18.2928.5808-14.6014,7.7677-23.5092,20.1111-25.2088,10.4146-1.434,18.7216,5.0883,23.3515,18.3351.7827,9.4457,1.3375,18.8614.3623,28.3654-2.1993,21.4366-12.2999,28.4453-32.6881,22.3186Z"/>
  <path class="cls-18" d="M867.8232,591.2932c2.6174-12.9516.5321-26.0317.9639-39.0454.1756-5.2942-3.7776-3.477-6.4979-2.7216-3.219.8938-6.5744,2.7795-8.2939-1.9402-1.7396-4.7747,1.6658-6.601,5.117-8.1012,4.6983-2.0422,9.4414-3.9906,14.2258-5.8183,6.3729-2.4347,9.0309.2067,8.9933,6.7527-.0807,14.0297-.0618,28.0604.0021,42.0903.0248,5.4404-1.863,11.8645,6.438,13.4988.6251.1231.7679,2.7395,1.1348,4.1969-9.1153,4.3368-18.7257,1.2405-28.0889,1.8519-1.6244.1061-2.8169-1.0753-2.9534-2.8183-.1795-2.2901.5618-4.2156,2.761-5.2598,2.0344-.966,5.0524.3803,6.198-2.6858Z"/>
  <path class="cls-55" d="M895.3792,664.4639c.0051-8.511.0102-17.022.0154-25.533,2.3625,8.5125,2.3952,17.0235-.0154,25.533Z"/>
  <path class="cls-22" d="M403.1442,692.4397c1.7139-.1277,3.4277-.2555,5.1416-.3833,10.0599.1795,13.6545-7.8821,18.2953-14.6103,2.61-1.3281,5.6447-2.1796,7.7417-4.0829,4.4298-4.0207,8.2258-3.4341,12.1369.4397.1336,3.8405.1737,7.6873.4278,11.5197.2891,4.3619,2.1099,7.3392,7.0531,7.0452,2.8046,2.9128,6.8437,2.1503,10.1122,2.647,7.1612,1.0884,8.3544,4.9624,8.1922,11.228-.1859,7.1838-2.8495,10.7443-10.2898,9.8654-2.0611-.2434-4.1761-.0218-6.2664-.0136-3.408,3.7279-2.2894,9.2765-5.2152,13.1983-5.0714,3.4344-10.7606,5.4076-16.557,7.1277-5.2186,1.822-5.0476-2.306-5.8806-5.3857-1.2405-4.5862,2.3591-11.7546-4.5045-13.2275-6.6221-1.4211-12.2758,2.9852-18.3685,6.9873,13.6197,4.7656,14.6816,6.6484,10.4542,16.9361-10.8657,5.7787-22.7673,8.211-34.5895,10.9001-4.8281-7.996-4.1769-16.9488-4.3388-25.7342-.2058-11.1668-1.8211-12.3199-12.2428-8.4059-1.7064.6409-3.4282,1.2917-4.9173,2.3413-2.1445,1.5114-5.6682,2.5687-4.8469,5.8069.7309,2.882,4.1127,1.7701,6.3684,1.9602,4.711.397,7.5138,2.9043,7.4535,7.5358-.0916,7.0346,2.8987,14.7761-3.819,20.5932-7.6893,2.7576-15.6923,4.1177-23.7088,5.4179-5.5631,1.8913-6.3361-2.7907-6.7194-5.942-1.3496-11.0913-3.0977-22.1174-4.6854-33.1695,25.2606-8.3957,49.3105-19.7553,73.5728-30.5949Z"/>
  <path class="cls-118" d="M364.6851,756.7282c3.0771-7.0139,1.682-14.4188,1.5031-21.6235-.1606-6.4712-5.4737-4.3408-8.9112-3.8539-2.8023.3968-5.4751,1.683-6.7826-1.8706-1.1907-3.236-.1287-5.9138,2.9646-7.7125,2.0807-1.2098,3.9592-2.791,6.0837-3.904,16.6553-8.7259,19.4219-6.9992,19.7033,11.3582.1203,7.8437,1.16,15.6731,1.7819,23.509-5.1632,2.5207-10.6236,3.8344-16.3428,4.0973Z"/>
  <path class="cls-3" d="M329.5715,723.0346c4.3118,7.1668,6.1658,14.8425,5.9973,23.3134-.1128,5.6705-1.2403,12.2484,5.408,15.798-6.3901,2.9934-13.1604,3.8545-20.1193,3.6558,4.3007-10.7817.748-21.4452-.7594-32.0646-.4309-3.0361-3.5762-4.6918-6.8033-5.1481,5.2701-2.316,10.3404-5.2276,16.2768-5.5544Z"/>
  <path class="cls-113" d="M415.6174,741.7308c.5383-7.5935,1.5456-15.5941-10.4791-12.2527-1.7797.4945-2.9502-.3789-3.5395-1.9255-.7304-1.9173-.1553-3.8346,1.4724-4.8364,3.0731-1.8914,6.294-3.5865,9.5883-5.0552,14.5696-6.496,17.1718-4.8476,17.5691,10.7541.0798,3.1321-1.1731,7.0495,3.6887,8.0052-5.9696,2.2292-11.8507,4.7664-18.3,5.3105Z"/>
  <path class="cls-151" d="M450.4737,729.2928c1.505-4.4936-4.6592-12.0721,5.2155-13.1986,7.0009,3.8121,14.5395.8996,21.7751,1.7721-8.6206,4.7143-17.6927,8.342-26.9906,11.4265Z"/>
  <path class="cls-114" d="M370.0053,256.1983c-3.7682,4.7429-9.7659,7.1771-12.8494,12.6278-1.3195-.0649-3.7636.0978-2.0549-2.0016,4.0714-5.0025,7.3228-10.8525,13.1404-14.2303-.0028,1.4958.2813,2.8484,1.7638,3.6041Z"/>
  <path class="cls-37" d="M898.5497,480.6503c.5667-5.714,1.078-11.4342,1.712-17.1406,1.2919-11.6278,6.6341-18.9815,15.3082-21.207,10.5386-2.7041,17.5359.5102,24.9682,11.4622.6782.9993,1.3857,1.9782,2.0802,2.9666,1.9418,13.2897,3.1809,26.5886.0014,39.8683-2.8424,11.8727-8.8677,15.9375-22.7986,15.5331-9.7378-.2826-17.6216-7.1915-19.2492-17.0243-.7942-4.7992-1.3555-9.6376-2.0222-14.4582Z"/>
  <path class="cls-135" d="M774.8177,390.4964c-.0273,7.9052.0384,15.8122-.1167,23.7148-.0922,4.6969-2.7221,8.3208-7.2878,6.8662-3.7054-1.1803-11.9032,3.3823-10.5524-6.4802,2.9811-.623,3.5224-2.8287,3.6733-5.4657.7821-13.6694,1.7085-27.336-.5808-40.9272-.497-.2869-.9379-.7595-1.3847-.7652-3.8039-.0483-8.9034,4.0567-11.0065-1.5942-2.4484-6.5788,3.613-7.8949,8.0073-9.7003,18.2877-7.5135,18.788-7.1522,18.8672,12.4303.0295,7.3075.2486,14.6143.3813,21.9214Z"/>
  <path class="cls-49" d="M703.3062,328.4751c-3.3619-3.8098-3.9449-8.7117-5.1595-13.3652.2267-5.3921.2371-10.9444,7.8853-10.8504,1.7739,2.2081,1.7794,5.0978,2.835,7.5863,1.2417,2.9272,2.9913,5.5123,6.5303,5.3031,3.6501-.2158,4.8893-3.1359,5.5299-6.237,1.783-8.6327,2.9548-17.319,1.698-26.1572-.4259-2.9952-1.051-5.9832-.2031-9.0235,1.8427-5.3297,4.856-8.0645,10.5419-4.8352,7.9577,16.9457,6.1079,34.2039,1.6137,51.5464-8.9075,10.012-19.3429,11.9614-31.2714,6.0327Z"/>
  <path class="cls-23" d="M714.6037,409.193c6.8958-8.2314,5.1993-18.1923,5.1771-27.6917-.0105-4.5133-.9812-9.1188-2.1598-13.5068-1.0515-3.9146-3.0432-7.5198-8.172-6.9131-.3845-1.9891-.7699-3.9797-1.1564-5.9748,2.8957-6.1839,7.4483-3.3637,11.3078-1.7458,4.9099,2.058,7.6679,6.4686,9.84,11.2016,1.1669,12.9334,5.2907,25.717,1.6123,38.8961-1.0073,3.6092-2.2032,6.9481-4.8467,9.6644-2.7768,2.8533-5.9463,6.9743-9.6721,5.8002-4.0279-1.2693-1.1371-6.4039-1.9302-9.7301Z"/>
  <path class="cls-130" d="M717.9169,530.3496c22.0281,15.0922,25.7247,28.8459,16.7948,62.488-12.8885,14.8228-23.8562,14.8316-37.8152-.0474-1.1948-1.2736-2.4417-1.6456-4.0279-1.3885,4.1507-8.7256,8.3009-17.4535,12.4511-26.1813,3.1953,2.8063,2.3786,6.6801,2.6066,10.2403.2146,3.3491.1313,6.738,1.77,9.8021,1.2079,2.2583,2.8784,4.042,5.6589,3.8298,2.7616-.2108,4.8575-2.1211,4.9247-4.6077.3944-14.5987,5.207-29.8518-5.6152-42.9657,1.0841-3.7232,2.1681-7.4464,3.2522-11.1696Z"/>
  <path class="cls-83" d="M760.0158,594.6028c4.4023-.3059,4.1873-3.6347,4.2066-6.69.0732-11.6029-.1778-23.2154.221-34.8058.2204-6.4079-3.2778-4.2788-6.3443-3.4856-2.921.7556-5.8521,2.2965-7.5489-1.9374-1.6945-4.2281.7767-6.2245,3.9102-7.9445,1.3284-.7291,2.6818-1.4125,4.0303-2.1038,16.5468-8.481,19.3168-6.9738,20.2019,10.9874-.101,15.5324-.094,31.0665-.3419,46.5965-.1701,10.6533-8.4077,6.1041-13.5029,6.6556-5.0734.549-7.5329-1.9284-4.832-7.2726Z"/>
  <path class="cls-132" d="M659.9073,644.3469c3.2731-6.8328,7.3262-13.1132,12.7956-18.3905,2.84,5.1126,1.5705,10.6595,1.6248,16.053.1496,14.8574.2281,29.7156.3361,44.5731.0471,4.1169-1.9015,5.8532-6.025,5.6212-3.5244-.1982-7.0745.0652-10.6135.1258-5.2443-1.7066-4.4042-4.9208-.7966-6.8566,4.4577-2.3918,4.76-5.9579,4.4347-9.9231-.8523-10.3885,2.2056-21.0013-1.756-31.203Z"/>
  <path class="cls-12" d="M678.1485,351.7502c-8.3818-1.1745-15.1388,3.7556-22.5336,6.2166-3.6256,1.2066-3.7404,4.5022-2.96,7.6732,1.0193,4.1421,4.0175,2.9964,6.5267,1.9969,7.261-2.8924,7.4443,1.5187,7.2861,6.7701-.286,9.4925-1.045,19.0395-.3594,28.4715.5708,7.8528-2.4855,10.3819-9.5242,9.9103-6.9071-1.0407-13.8183,2.9749-20.7241-.0161-7.6017.74-10.5276-1.5646-11.0477-9.9059-.7011-11.2424.1208-22.5364-.3948-33.7806-.2163-4.7174,3.0193-11.8335-3.5621-13.5553-6.5712-1.7191-12.6504,1.9169-16.9771,7.6349,2.7297,3.5826,7.7005.4984,9.8592,4.3094,2.0864,14.0346,2.0797,28.06.0282,42.0892-.3734.4338-.7526.8638-1.1318,1.2938-8.7411,1.8706-15.2459-4.433-22.9077-6.5189-3.0826-.8392-2.5464-4.3585-2.8075-7.081-.628-6.5511,1.711-13.3214-1.4183-19.6815-4.4068-5.22-4.1785-12.1957-6.7597-18.1121-8.0224-16.4335-1.9562-33.8207-3.4063-50.6951-.1169-2.4414.0322-4.8826.1223-7.3195,2.822-10.1456-1.0203-17.6419-7.366-25.7591-10.3302-13.2137-22.9983-23.2613-36.1084-33.1593-3.8555-2.9109-10.1873-5.5416-6.503-12.7885,2.298-.0018,4.6686-.7501,6.817.6991,4.447.4636,7.8505,4.2864,12.5412,3.9656,1.9292-.1227,3.447.9685,5.0482,1.7768,12.03,6.0729,21.4922,1.8209,29.7076-7.4875.0773-1.8482.1546-3.6964.233-5.5441,8.2752,11.1477,21.1875,16.603,31.1009,25.7658,5.0825,4.6978,10.5995,8.9029,14.2122,14.9913-3.777,2.2162-7.6861.1852-11.5283.3081-8.6427.2764-14.9336,4.0693-17.352,12.0194-3.872,12.7281-4.8682,25.7579-1.1996,38.7376,4.1856,14.8088,19.973,19.2118,31.4644,9.0702,2.3549-2.0783,3.7324-5.8192,7.8581-5.2601,2.0658,9.1036,7.2503,11.429,14.5548,6.3705,1.7584-1.2177,3.2772-2.6899,5.5718-2.6753,6.429.041,7.1058-4.5385,7.1725-9.3558.1141-8.2294-.314-16.4815.1482-24.6862.3567-6.3323-1.6888-9.1795-8.1336-8.3282-1.8341.2423-3.621-.1894-4.7742-1.9336q14.7287-.369,14.6645,15.5269c-.0237,6.7145-.0066,13.4292-.0042,20.1438.0018,4.8933.7073,10.1167-6.2476,11.161-.8871.1332-2.1856,1.5554-2.2372,2.443-.1139,1.9567,1.6765,2.1466,3.1949,2.24,1.2064.0742,2.4193.0313,3.6285.067,13.3558.3936,13.196.3989,12.8727-13.2205-.3042-12.8107-.2556-25.6307-.2846-38.4468-.0065-2.8882-.1191-6.7744,3.5282-1.552-2.4874,2.1315-1.6996,5.0543-1.7063,7.7067-.0476,18.9277.0806,37.8565-.0901,56.7827-.0342,3.7878,1.274,7.1523,1.9085,10.7215Z"/>
  <path class="cls-42" d="M634.3816,318.7854c-4.637,6.0489-9.0436,12.2257-17.673,12.9366-15.8793,1.3081-25.0756-7.3491-26.044-25.5262-.4205-7.8924.6065-15.7846,1.2682-23.6919,1.5009-17.9368,17.626-25.6068,33.2065-18.5943,13.3215,11.9451,11.9312,27.6558,10.3909,43.1471-.3869,3.8908-.9327,7.7987-1.1486,11.7287Z"/>
  <path class="cls-73" d="M732.9638,270.8959c-5.1424-1.4566-7.1367,2.5503-9.6484,5.6592-13.2569-2.9555-15.0889-1.3171-15.5141,12.8734-.1482,4.9454,1.5469,10.3286-2.4431,14.6669-4.3207,2.3943-4.8063,7.3442-7.2114,11.0148-3.0363-5.1413-5.2393-10.5805-5.8386-16.5978.3358-5.7454.0957-11.5937,1.113-17.2102,3.7441-20.672,23.5534-28.5082,39.4502-12.1571.0091.585.0398,1.1685.0924,1.7508Z"/>
  <path class="cls-89" d="M778.6354,445.6138c9.0609,9.0424,9.6111,20.5155,9.1274,32.3147-.2374,5.7925-.3103,11.5919-.4581,17.3881-3.8677,7.9606-7.4739,16.0903-18.0567,16.86-15.519,1.1286-23.881-5.0684-26.3054-20.8608-1.1914-7.7601-.938-15.7459-1.3386-23.6296,1.8096-21.1935,18.0671-30.8836,37.0314-22.0725Z"/>
  <path class="cls-17" d="M500.3574,931.8516c.2665-5.8031.5615-11.605.7903-17.4095.1711-4.342,2.3187-6.9098,6.6122-7.2618,4.4568-.3653,9.0323.1147,10.1781,5.4154,2.8878,13.359,2.3418,26.7964-.8942,40.0076-1.0087,4.1182-4.9527,4.916-8.9009,4.5993-4.3463-.3487-6.4442-3.0866-7.1989-7.0299-1.1607-6.0651-.9737-12.1919-.5868-18.3212Z"/>
  <path class="cls-24" d="M627.6586,931.9391c-.4538,6.3535-.5315,12.4829-1.4377,18.4849-.6886,4.5611-3.5292,7.9205-8.6201,7.7822-5.1391-.1395-7.8075-3.9181-8.2347-8.3137-1.152-11.8521-1.1756-23.7995-.0081-35.6501.3956-4.0161,2.8573-6.9001,7.9711-7.0887,5.3413-.1969,8.3835,2.2073,9.1306,6.7996.9729,5.9795.8588,12.139,1.1988,17.9857Z"/>
  <path class="cls-8" d="M705.5008,658.507c-.0955-5.7817.0106-11.5092,1.4962-17.1919,1.196-4.575,3.2102-8.2925,8.3445-7.8031,4.6045.4388,7.5497,3.8092,8.2241,8.3698,1.6029,10.8394,1.5829,21.757-.0626,32.5831-.686,4.5136-3.5479,7.9899-8.3304,8.3064-5.2143.3452-6.9347-3.5-8.2189-7.984-1.5442-5.3923-1.2667-10.8315-1.4528-16.2804Z"/>
  <path class="cls-147" d="M755.7169,841.0687c.269-5.7457.3242-10.9611.8089-16.1354.4816-5.1435,3.3668-8.8118,8.5725-9.1211,5.4253-.3224,8.3864,3.4417,8.9905,8.4769,1.3509,11.2598,1.6694,22.5852-.0567,33.8433-.7237,4.7206-3.4769,7.9321-8.5711,7.7633-4.9327-.1633-7.9295-3.3226-8.5771-7.9827-.7973-5.7383-.835-11.5841-1.167-16.8443Z"/>
  <path class="cls-48" d="M765.6092,749.3718c0,5.2062.1255,10.4162-.0361,15.6173-.1551,4.9935-2.6727,8.1126-7.839,8.2266-5.6149.1239-8.4012-3.0648-8.4518-8.5315-.0965-10.4105-.1282-20.8258.0917-31.2331.0865-4.0916.9674-7.9737,6.389-8.3551,5.7185-.4023,8.8203,2.8168,9.4712,7.7741.7107,5.4127.1615,10.9937.1615,16.5013.0712.0001.1424.0003.2135.0004Z"/>
  <path class="cls-76" d="M827.8565,387.9956c-.3136,3.8401-.6003,9.6275-1.3119,15.3612-.5977,4.8159-3.0955,7.6764-8.4814,7.4438-5.632-.2431-8.4938-3.3693-8.6402-8.5488-.3013-10.6716-.1148-21.3586-.055-32.0388.0256-4.569,2.4436-7.8004,6.75-8.5257,4.7122-.7936,7.9551,1.8906,9.9222,6.2652,2.6389,5.8684,1.1289,12.0539,1.8161,20.0431Z"/>
  <path class="cls-116" d="M532.2959,230.4423c-2.4115.0398-4.8231.0796-7.2346.1195-6.8348,9.0978-10.5598,9.6102-18.683,1.7543-3.3268-3.2173-6.4728-2.5951-9.985-1.251-3.4649,1.326-6.0957,3.9789-9.109,6.0244-10.8235,7.347-22.396,10.4432-35.2398,6.3119-7.4639-.197-14.7813-1.2834-21.8849-3.6688,6.8462.1963,13.6968-.7243,20.5021,1.4407,4.8479,1.5423,7.1997-.8904,6.9943-6.1679-.1637-4.2051-.0421-8.4835.5654-12.6382.5254-3.594,1.6967-7.2829,6.6849-6.6806,17.191,1.134,33.3344,7.6421,50.291,9.9724,3.2608.4481,6.533.812,9.8001,1.2153,1.6226,2.877,5.6912.6597,7.2984,3.568Z"/>
  <path class="cls-87" d="M608.8802,750.4357c0-6.9825-.2651-12.1853.0786-17.3467.3092-4.6428,2.8256-8.4428,7.537-9.0246,4.7029-.5806,8.4639,2.3481,9.409,6.9171,2.6118,12.6258,1.9206,25.4204.3117,38.1084-.4425,3.4897-3.0804,5.7516-7.0824,5.8413-4.637.1038-7.2754-2.3226-8.8958-6.3677-2.5989-6.4876-.8119-13.2955-1.3582-18.1278Z"/>
  <path class="cls-126" d="M579.5929,228.6972c-5.0213,14.2732-23.473,17.3039-34.7548,5.7095-1.1781-4.3427-3.4296-8.3743-3.4729-13.0534-.0382-4.1338.9376-7.1065,5.8249-7.3392,4.028-.1917,6.2828.4969,7.5145,5.3294,2.677,10.5031,4.6123,11.4216,14.4413,7.0298,4.6953-2.0979,7.3215-.0185,10.4469,2.3237Z"/>
  <path class="cls-71" d="M452.0446,243.4014c15.0483,1.2086,28.2499-2.531,39.7986-13.0223,6.5733-5.9715,12.4077-4.3523,17.531,2.9853,2.1503,3.0796,5.0196,3.1691,7.9572,1.7785,2.6935-1.2751,5.1612-3.0358,7.7291-4.5818.3121,4.934,4.08,7.7099,7.4533,9.8146,16.0947,10.0419,29.0496,23.3478,40.9169,37.9845,5.4479,6.7193,6.5524,13.9876,4.3932,22.0813-4.0494.0347-3.608-3.5128-4.3487-5.857-3.0584-9.6795-9.7929-16.7673-16.3122-24.01-1.0172-1.1302-2.46-1.7621-4.1299-.9044-1.4379,2.1291.3291,3.453,1.4817,4.6283,9.6914,9.8827,11.2282,22.768,12.6634,35.5529.6534,5.8202-1.2278,10.9268-7.5794,13.1051-1.6238.5569-3.73,1.3183-2.9887,3.7735.4929,1.6326,2.1921,1.8646,3.6809,2.2314,9.6925,2.3876,12.862-.3298,13.5226-10.7168.2368-3.7252-2.0961-8.9273,4.0058-10.5679-.3489,10.3073.58,20.5634-1.3563,30.9469-1.3215,7.0868,3.517,13.9445,4.8005,21.1015-1.7829,1.07-3.6031.6081-4.9909-.4956-6.6992-5.3276-14.1071-5.2495-21.8331-3.246-4.6763-19.3991-12.8336-37.2124-24.0093-53.6507-.6605-6.6211-.0481-13.3103-.8401-19.9056-1.2006-9.9978-6.4489-16.5212-13.9677-17.9245-7.6726-1.432-9.8439.2535-10.7005,8.3061-1.1411-.3342-2.7111-.2964-3.3599-1.0576-13.1577-15.4411-31.1339-22.2467-49.5175-28.3496Z"/>
  <path class="cls-64" d="M554.4396,355.9834c6.502-6.8287,13.4764-3.9218,20.2953-.7948,2.3682,1.086,4.3635,2.9998,6.5289,4.5359,1.9866,5.8119,4.3353,11.5359,4.2361,17.8518-.138,7.3197-.0135,14.6563-.487,21.9533-.486,7.4918-2.4379,14.4562-9.5762,18.6164-3.4411,2.0054-7.4249,4.908-10.9003,2.8757-3.3653-1.968-1.2705-6.6667-1.2218-10.2019,1.6344-.7294,3.6373-1.0764,4.8419-2.2543,5.562-5.439,6.0862-37.3899.7691-43.1896-3.7602-4.1015-8.2495-2.5648-12.6313-1.2396-.8311-2.6685-2.566-5.1274-1.8547-8.1528Z"/>
  <path class="cls-52" d="M504.922,272.8087c-5.0931-7.8324-3.853-10.4221,5.2917-11.051,9.9445-.6839,16.4299,3.076,19.7179,12.4114,3.2467,9.2178,4.2554,18.7068.4988,28.1632-5.7559-7.2211-12.7106-13.3311-13.5195-23.937-.425-5.5719-7.1295-5.4052-11.9889-5.5865Z"/>
  <path class="cls-4" d="M855.4857,749.5539c.4515-6.2655.7455-11.1527,1.171-16.0282.454-5.2021,2.8308-8.7106,8.46-8.8659,5.112-.141,7.9393,2.7612,8.6881,7.5801,1.7959,11.5558,1.9726,23.1157-.3136,34.6641-.8997,4.5447-3.5006,7.2805-7.9675,7.3179-4.8688.0408-8.0271-2.895-8.6426-7.752-.7676-6.0587-1.0247-12.1832-1.3954-16.9159Z"/>
  <path class="cls-84" d="M831.2999,633.0018c5.2568,3.0613,7.0516,8.0784,7.1976,13.7562.1943,7.562.2565,15.1402-.0027,22.6982-.3701,10.7884-3.2576,13.3232-14.478,13.4637-4.6567-4.9406-3.9544-11.1794-4.0309-17.1997-.0849-6.6775.1824-13.3667-.1105-20.0326-.3623-8.2428,3.0069-12.6806,11.4246-12.6857Z"/>
  <path class="cls-93" d="M714.6647,541.5192c6.7271.4247,8.5734,5.6019,8.8467,10.7874.5456,10.354.2566,20.7579.1489,31.1394-.05,4.8212-2.4455,8.3328-7.26,9.1546-5.5204.9424-8.5168-2.7476-10.021-7.368-2.1162-6.4998-1.0064-13.3189-1.0593-20.0122,3.1148-7.9004,6.2298-15.8008,9.3447-23.7012Z"/>
  <path class="cls-15" d="M515.7331,763.6653c3.0323.4014,4.0971,2.2462,3.5784,5.1264-.5068,2.814-2.375,4.1114-5.0901,4.2293-3.6213.1573-7.4048.6509-9.3275-3.6487,3.6128-1.9025,7.226-3.8047,10.8392-5.707Z"/>
  <path class="cls-109" d="M596.0197,493.422c.1101-8.8039.3059-17.6077.3101-26.4116.006-12.7943,5.7496-22.0482,15.6238-24.8842,10.6274-3.0525,18.9671.9401,26.2256,12.5226.4742.7568,1.1252,1.4008,1.6939,2.0972,4.6034,12.8574,4.4928,25.7245.0778,38.6004-5.7886,19.944-22.434,20.7669-33.3248,14.5657-6.5299-3.7181-8.2161-10.2512-10.6063-16.49Z"/>
  <path class="cls-90" d="M579.8706,596.4719c.2185,3.8302-1.6318,5.5652-5.3722,5.539-5.1195-.0359-10.2402.0634-15.3589-.0052-2.0043-.0268-4.4719.4432-4.9304-2.5864-.4275-2.8243.4546-4.7266,3.6678-4.8903,4.9818-.2535,5.4534-3.689,5.4211-7.6898-.0859-10.6346-.3131-21.281.0797-31.9014.2302-6.2203-2.3936-7.8737-7.4181-5.6145-3.7832,1.7011-5.5141.2332-7.1386-2.6918,2.0934-6.0743,19.474-15.867,24.9165-13.9284,4.1047,1.462,3.5726,5.1764,3.6186,8.4655.2132,15.233.3684,30.4667.5475,45.7002.0391,3.3282-.4109,6.7612,1.967,9.603Z"/>
  <path class="cls-7" d="M639.9509,495.3463c-.026-12.867-.0521-25.7341-.0779-38.6008,5.9483,1.1815,10.3499-1.7397,14.4223-5.5338-.3505,4.85.4597,8.5378,6.7082,7.3331,4.6053-.888,6.4285,1.0096,6.258,5.875-.3606,10.2916-.2718,20.5992-.3676,30.9003-8.9811.0088-17.9621.0175-26.943.0262Z"/>
  <path class="cls-6" d="M530.6365,633.2702c4.3841,13.9848,4.625,28.1108,1.8283,42.4496-2.2406,11.4876-8.7662,18.0081-19.1477,18.4438-12.0676.5065-21.5818-5.4476-23.6335-16.8742-2.2586-12.5789-2.3484-25.4942.3318-38.1773,1.3028-6.1649,4.5316-11.2198,9.7084-14.8996,13.2251-4.5242,21.1969-2.1884,30.9127,9.0576Z"/>
  <path class="cls-51" d="M612.4663,367.0562c-.2989-.0493-.5965-.1085-.8968-.1462-3.9329-.4943-9.1993,5.4242-11.6317-1.427-2.3663-6.6649,4.1157-7.7008,8.1416-9.8799,2.1163-1.1455,4.4399-1.9552,6.7408-2.6904,10.7984-3.4498,12.5796-2.0926,12.5964,9.3361.0198,13.4436.4002,26.8978-.0287,40.3262-.2103,6.5826,2.1922,9.7148,8.4724,10.1978.9425,6.8113-1.94,9.4079-8.7092,8.8015-5.3979-.4836-10.8699-.1318-16.3089-.1421-3.6647-.007-8.0302.3688-8.3486-4.658-.3233-5.104,4.0877-4.0909,7.2421-4.2894,1.2516-.0788,2.362-.3018,2.8978-1.6265.0003,0-.0322.0052-.0322.0052,1.3279-14.6067,1.5121-29.2099-.1348-43.8073Z"/>
  <path class="cls-133" d="M913.3499,567.2492c0-4.8681-.2554-9.7536.0705-14.5994.3384-5.0318,2.8345-8.9337,8.1969-9.3002,5.429-.3711,8.7883,3.4376,9.2958,8.203,1.1901,11.1735,1.5375,22.4875-.0348,33.6509-.6173,4.3832-3.599,7.7945-8.7864,7.56-5.1265-.2317-7.6593-3.8088-8.2995-8.2158-.8267-5.6898-.6918-11.5217-.9709-17.2925l.5284-.0059Z"/>
  <path class="cls-1" d="M913.0727,477.1033c0-5.1821-.0046-10.3643.0012-15.5464.0053-4.7934,1.3244-8.2196,7.0151-8.5985,5.4512-.3629,8.554,1.627,9.7248,7.0926,2.5269,11.7956,2.4872,23.54.0128,35.3322-1.1424,5.4445-4.4326,7.7862-9.7381,7.2325-5.3198-.5552-6.8699-4.3456-6.9429-9.0524-.0851-5.4855-.0199-10.9733-.0199-16.4602-.0177,0-.0354,0-.0531,0Z"/>
  <path class="cls-14" d="M705.3582,304.0955c.0975-6.9854.0154-13.9796.3528-20.9532.2435-5.0313,1.6818-9.8165,6.9774-11.7497,5.0357-1.8383,7.5953,2.3495,10.6283,5.1623,2.6202,10.8554,2.0597,21.7804.6969,32.7215-.6972,5.5973-1.3985,11.5234-8.8483,11.4401-7.6514-.0855-8.9204-5.9535-9.4866-12.0595-.1406-1.5173-.2155-3.0408-.3206-4.5615Z"/>
  <path class="cls-137" d="M577.8193,307.6765c-3.3548,5.3706-1.397,11.3095-1.5314,16.9571-.118,4.9608-1.4502,7.4961-6.7498,7.057-3.9138-.3243-7.9167.1234-11.7732-.4739-2.5651-.3973-5.3926-1.5869-5.335-5.2046.0531-3.3317,1.9091-5.3185,5.0462-5.2565,6.4542.1276,7.8698-4.1396,7.4011-9.0313-1.2776-13.3327-2.2547-26.8738-13.1538-36.822-2.1731-1.9836-6.3773-4.1725-1.6718-7.7973,3.5377-2.7253,6.5199-2.0011,9.336,1.5385,7.7123,9.694,15.8244,19.1088,18.4366,31.7974-.0018,2.4122-.0034,4.8239-.0049,7.2356Z"/>
  <path class="cls-111" d="M612.4663,367.0562c3.2734,14.5921,2.5411,29.1967.1346,43.8069-.0447-14.6021-.0897-29.2045-.1346-43.8069Z"/>
  <path class="cls-85" d="M605.5055,295.3074c0-5.1788.1199-10.3613-.0361-15.5353-.1369-4.5388,2.1459-6.496,6.3006-7.3223,4.1734-.8301,7.4465.338,8.8118,4.2931,4.5167,13.0839,3.4527,26.3667.2122,39.4887-.8934,3.6176-4.4313,4.7171-8.1003,4.3783-4.2566-.3931-6.7242-2.9472-6.939-7.0335-.3193-6.0742-.0827-12.1781-.0827-18.2694-.0555.0002-.111.0003-.1666.0005Z"/>
  <path class="cls-108" d="M774.2034,478.6703c0,4.8741.467,9.8067-.1241,14.6066-.6646,5.3972-3.9958,9.134-9.7497,8.8462-5.5141-.2758-7.3853-4.3561-7.9982-9.4169-1.2529-10.3443-1.4345-20.6565-.077-31.0079.6809-5.1908,2.8175-8.5145,8.52-8.7232,5.3058-.1942,7.6018,2.8102,8.6389,7.4777,1.3356,6.0112,1.4391,12.1037.7901,18.2175Z"/>
  <path class="cls-28" d="M628.3838,478.2992c-.4746,5.1804-.6515,10.7132-1.579,16.1149-.7673,4.4686-3.2397,8.0068-8.3781,8.2066-5.2223.203-7.8164-3.1198-8.6397-7.7126-2.1208-11.831-1.4288-23.7768-.364-35.6377.3947-4.3969,3.7682-6.7644,8.404-6.7092,4.8652.0579,8.3755,2.1672,9.0447,7.1775.8075,6.0468,1.0196,12.1744,1.5121,18.5605Z"/>
  <path class="cls-5" d="M519.8485,658.3514c-.732,5.926.6763,11.826-1.3692,17.4692-1.3043,3.5983-3.054,6.8553-7.4235,7.0169-4.2389.1568-7.1241-2.3619-8.0137-6.1844-3.0177-12.9664-3.0143-26.0125.641-38.8724.7732-2.7201,3.1652-4.3651,6.2926-4.4337,3.87-.0848,6.1942,2.0665,7.7965,5.2836,3.173,6.3713,1.1926,13.2743,2.0762,19.7208Z"/>
</svg>